{"glyphs":{"0":{"ha":850,"x_min":35,"x_max":815,"o":"m 35 427 q 51 562 35 496 q 101 686 68 628 q 181 787 135 743 q 293 855 228 830 q 432 880 357 880 q 568 857 505 880 q 675 791 630 833 q 752 694 720 749 q 800 575 784 639 q 815 443 815 511 q 789 276 815 355 q 715 133 763 196 q 590 31 667 69 q 421 -7 514 -7 q 286 17 349 -7 q 178 81 224 40 q 100 176 132 121 q 51 294 67 231 q 35 427 35 358 m 287 781 q 271 750 287 781 q 252 628 256 720 q 262 431 248 536 q 312 238 279 329 q 392 90 346 148 q 485 32 439 32 q 562 95 532 32 q 596 250 591 157 q 586 450 600 343 q 537 640 570 551 q 458 785 505 729 q 366 842 412 842 q 287 781 317 842 z "},"1":{"ha":465,"x_min":35,"x_max":431,"o":"m 35 0 q 126 178 126 56 l 126 567 q 35 745 126 688 l 339 892 l 339 178 q 431 0 339 56 l 35 0 z "},"2":{"ha":772,"x_min":35,"x_max":737,"o":"m 35 39 q 92 84 62 60 q 169 151 122 108 q 256 237 215 193 q 340 339 296 281 q 414 455 383 397 q 465 580 445 512 q 485 713 485 648 q 390 842 485 842 q 349 835 368 842 q 315 818 330 828 q 284 789 299 808 q 259 753 270 770 q 237 707 249 736 q 218 656 225 677 q 200 597 210 634 q 184 537 190 561 q 168 472 178 513 l 72 761 q 408 879 218 879 q 516 869 466 879 q 612 835 566 859 q 685 767 658 812 q 711 661 711 723 q 705 603 711 632 q 688 550 699 574 q 661 500 678 526 q 627 455 643 475 q 585 412 611 435 q 541 373 559 389 q 491 335 522 357 q 443 301 461 313 q 393 267 425 288 q 347 236 362 246 q 314 214 336 229 q 281 191 292 199 l 412 191 q 603 220 532 191 q 737 340 673 250 l 671 0 l 74 0 l 35 39 z "},"3":{"ha":754,"x_min":35,"x_max":720,"o":"m 35 72 l 139 375 q 145 307 142 334 q 155 240 149 279 q 171 174 162 200 q 194 119 179 148 q 226 72 208 90 q 271 43 244 55 q 330 32 298 32 q 406 51 374 32 q 453 100 437 69 q 476 161 469 131 q 484 224 484 192 q 413 400 484 330 q 232 471 342 471 q 174 465 200 471 l 153 513 q 268 566 218 535 q 349 631 319 597 q 393 697 378 665 q 408 760 408 730 q 384 819 408 796 q 318 842 360 842 q 237 809 271 842 q 185 725 203 777 q 161 606 168 674 l 75 804 q 218 861 135 843 q 376 879 300 879 q 456 872 419 879 q 529 851 493 866 q 586 806 565 836 q 607 734 607 777 q 549 604 607 661 q 411 524 491 547 q 526 507 471 524 q 624 459 581 491 q 694 377 668 428 q 720 262 720 326 q 688 137 720 192 q 603 49 656 82 q 484 0 549 16 q 345 -17 418 -17 q 35 72 163 -17 z "},"4":{"ha":791,"x_min":35,"x_max":757,"o":"m 35 248 l 189 554 q 248 714 228 631 q 262 863 269 798 l 637 863 l 97 257 l 421 257 l 421 301 q 363 496 421 414 l 633 627 l 633 257 l 757 257 l 757 208 l 633 208 l 633 178 q 725 0 633 56 l 329 0 q 421 178 421 57 l 421 208 l 90 208 l 35 248 z "},"5":{"ha":705,"x_min":35,"x_max":671,"o":"m 35 72 l 139 375 q 161 195 151 241 q 267 39 188 64 q 313 32 288 32 q 417 76 379 32 q 456 195 456 121 q 416 337 456 273 q 310 438 376 402 q 165 475 243 475 q 92 468 134 475 l 205 842 l 425 842 q 652 900 579 842 l 607 667 l 201 667 l 163 542 q 328 572 233 572 q 434 561 383 572 q 528 524 485 549 q 603 463 571 498 q 653 377 635 427 q 671 268 671 328 q 645 139 671 195 q 572 50 618 83 q 464 0 525 16 q 330 -17 404 -17 q 35 72 165 -17 z "},"6":{"ha":719,"x_min":35,"x_max":685,"o":"m 35 325 q 68 502 35 417 q 159 650 102 586 q 291 763 216 713 q 448 842 366 813 q 612 880 530 871 l 612 846 q 400 725 489 823 q 286 482 312 627 q 446 557 346 557 q 533 541 492 557 q 609 492 574 524 q 664 405 644 460 q 685 278 685 349 q 606 61 685 139 q 375 -17 528 -17 q 238 4 298 -17 q 140 58 177 24 q 78 137 102 92 q 44 229 54 183 q 35 325 35 275 m 281 450 q 282 277 270 366 q 331 102 296 173 q 406 32 367 32 q 458 101 444 32 q 460 258 473 171 q 410 408 446 346 q 325 471 373 471 q 281 450 299 471 z "},"7":{"ha":705,"x_min":35,"x_max":671,"o":"m 35 525 l 102 863 l 619 863 l 671 827 l 500 309 q 447 115 459 185 q 436 0 434 52 l 117 0 q 173 85 135 28 q 231 170 212 141 l 571 675 l 359 675 q 258 669 300 675 q 176 648 217 664 q 101 603 135 633 q 35 525 67 572 z "},"8":{"ha":764,"x_min":35,"x_max":729,"o":"m 35 215 q 229 460 35 373 q 176 503 197 484 q 134 548 155 522 q 103 605 113 574 q 93 673 93 636 q 111 757 93 720 q 158 816 130 793 q 227 854 187 839 q 306 874 267 869 q 389 880 346 880 q 591 830 521 880 q 661 707 661 781 q 626 604 661 654 q 525 518 591 553 q 563 495 551 502 q 598 472 574 488 q 634 445 622 456 q 664 417 646 434 q 691 385 682 400 q 711 349 701 369 q 725 308 721 330 q 729 261 729 286 q 706 154 729 202 q 644 75 682 106 q 556 23 606 44 q 454 -7 506 2 q 349 -16 402 -16 q 203 3 265 -16 q 105 56 140 22 q 52 129 69 89 q 35 215 35 169 m 262 236 q 272 164 262 201 q 299 96 281 128 q 348 44 317 64 q 416 24 378 24 q 489 58 464 24 q 514 149 514 92 q 502 218 514 185 q 473 274 490 251 q 427 324 457 298 q 376 365 397 350 q 318 403 355 380 q 262 236 262 327 m 285 760 q 298 706 285 732 q 334 656 311 680 q 378 617 358 633 q 425 582 397 601 q 479 725 479 653 q 449 813 479 784 q 376 842 418 842 q 313 822 341 842 q 285 760 285 802 z "},"9":{"ha":719,"x_min":35,"x_max":685,"o":"m 35 574 q 116 796 35 712 q 354 880 197 880 q 487 860 428 880 q 582 806 545 839 q 642 727 618 772 q 675 635 666 681 q 685 539 685 589 q 651 362 685 447 q 560 214 617 278 q 429 100 503 150 q 272 21 354 50 q 107 -17 190 -8 l 107 18 q 321 141 232 41 q 435 389 410 241 q 351 328 399 349 q 253 307 302 307 q 98 377 162 307 q 35 574 35 448 m 261 763 q 254 728 261 763 q 260 606 246 693 q 310 456 273 518 q 395 393 347 393 q 439 414 420 393 q 437 587 450 498 q 388 762 424 691 q 314 832 353 832 q 261 763 276 832 z "},"\u0000":{"ha":0,"x_min":0,"x_max":0,"o":""},"\r":{"ha":347,"x_min":0,"x_max":0,"o":""}," ":{"ha":229,"x_min":0,"x_max":0,"o":""},"!":{"ha":261,"x_min":31,"x_max":229,"o":"m 61 16 q 48 29 61 16 q 35 85 35 42 q 61 154 35 127 q 131 180 88 180 q 200 154 174 180 q 227 85 227 127 q 200 16 227 42 q 131 -11 174 -11 q 61 16 88 -11 m 39 755 q 53 848 31 812 q 131 884 75 884 q 208 848 187 884 q 222 755 229 812 q 151 272 159 328 l 110 272 q 39 755 102 328 z "},"\"":{"ha":300,"x_min":35,"x_max":265,"o":"m 35 897 q 49 933 35 919 q 85 947 63 947 q 135 895 135 947 q 132 871 135 886 q 126 844 130 857 q 117 811 123 832 q 109 781 111 791 l 85 694 l 61 782 q 53 813 58 791 q 43 846 47 834 q 37 873 40 858 q 35 897 35 888 m 165 897 q 179 933 165 919 q 215 947 193 947 q 265 895 265 947 q 262 871 265 886 q 256 844 260 857 q 247 811 253 832 q 239 781 241 791 l 215 694 l 192 782 q 183 813 189 791 q 174 846 178 834 q 168 873 171 858 q 165 897 165 888 z "},"#":{"ha":794,"x_min":35,"x_max":760,"o":"m 35 285 l 37 298 l 232 298 l 285 534 l 90 534 l 93 549 l 288 549 l 350 833 l 364 833 l 301 549 l 538 549 l 600 833 l 614 833 l 551 549 l 760 549 l 757 534 l 549 534 l 496 298 l 690 298 l 688 285 l 493 285 l 431 0 l 416 0 l 479 285 l 243 285 l 180 0 l 167 0 l 229 285 l 35 285 m 245 298 l 482 298 l 534 534 l 298 534 l 245 298 z "},"$":{"ha":805,"x_min":35,"x_max":771,"o":"m 35 113 l 35 419 q 177 192 94 285 q 345 57 260 98 l 374 306 q 321 337 360 314 q 260 375 281 361 q 178 431 212 406 q 110 493 144 457 q 58 573 75 530 q 40 665 40 616 q 62 762 40 720 q 118 829 83 804 q 199 872 152 855 q 292 895 245 888 q 387 901 338 901 q 444 900 425 901 l 458 1018 l 481 1018 l 467 897 q 730 798 635 880 l 730 519 q 606 717 677 640 q 458 831 534 793 l 429 590 q 456 575 439 585 q 482 561 473 566 q 495 553 486 558 q 507 546 503 549 q 589 495 553 519 q 660 439 625 471 q 719 375 696 407 q 756 303 742 343 q 771 221 771 264 q 750 126 771 168 q 695 60 728 85 q 616 19 662 35 q 525 -2 570 3 q 432 -8 481 -8 q 396 -7 407 -8 q 358 -4 382 -7 l 342 -150 l 319 -150 l 338 -3 q 166 39 246 9 q 35 113 85 70 m 235 786 q 248 738 235 762 q 277 696 260 713 q 321 658 293 679 q 365 628 349 637 q 408 603 381 618 l 437 840 q 330 863 366 863 q 258 841 282 863 q 235 786 235 819 m 366 47 q 449 28 414 28 q 516 54 493 28 q 539 119 539 80 q 534 149 539 134 q 514 193 529 171 q 478 233 500 214 q 438 265 456 252 q 395 293 420 278 l 366 47 z "},"%":{"ha":909,"x_min":35,"x_max":875,"o":"m 35 660 q 90 814 35 749 q 239 879 145 879 q 385 817 332 879 q 437 668 437 755 q 384 516 437 580 q 235 452 330 452 q 89 513 143 452 q 35 660 35 574 m 135 0 l 170 0 l 779 873 l 745 873 l 135 0 m 153 663 q 199 528 166 586 q 268 469 232 469 q 308 500 292 469 q 325 575 323 530 q 319 671 327 620 q 275 803 307 747 q 205 860 242 860 q 153 800 168 860 q 153 663 139 741 m 472 201 q 527 356 472 290 q 676 421 583 421 q 822 359 770 421 q 875 210 875 296 q 821 57 875 121 q 672 -7 767 -7 q 526 54 581 -7 q 472 201 472 115 m 590 204 q 636 69 604 127 q 705 11 669 11 q 745 41 730 11 q 762 117 760 72 q 757 212 764 161 q 712 345 745 288 q 643 401 680 401 q 591 342 605 401 q 590 204 576 282 z "},"&":{"ha":1019,"x_min":35,"x_max":985,"o":"m 35 186 q 56 281 35 233 q 112 370 77 329 q 185 443 148 411 q 267 504 223 475 l 256 518 q 195 602 214 570 q 153 729 153 664 q 216 856 153 810 q 374 901 279 901 q 449 893 413 901 q 515 867 484 884 q 564 818 545 849 q 582 746 582 787 q 485 570 582 656 l 671 332 q 701 400 696 369 q 673 532 712 486 l 961 532 q 870 497 909 517 q 800 447 831 477 q 746 384 769 416 q 694 300 724 351 l 761 215 q 985 -20 871 75 q 828 -8 873 -14 q 688 32 751 2 q 566 126 626 62 q 431 21 496 56 q 281 -14 366 -14 q 162 7 217 -14 q 71 75 108 28 q 35 186 35 121 m 241 269 q 244 239 241 258 q 298 155 256 184 q 396 126 340 126 q 528 171 467 126 q 463 248 495 208 q 382 352 430 289 q 321 433 334 416 q 241 269 241 347 m 371 766 q 381 710 371 734 q 414 656 391 686 l 425 640 q 454 693 444 659 q 464 758 464 728 q 415 840 464 840 q 371 766 371 840 z "},"'":{"ha":169,"x_min":35,"x_max":135,"o":"m 35 897 q 49 933 35 919 q 85 947 63 947 q 135 895 135 947 q 132 871 135 886 q 126 844 130 857 q 117 811 123 832 q 109 781 111 791 l 85 694 l 61 782 q 53 813 58 791 q 43 846 47 834 q 37 873 40 858 q 35 897 35 888 z "},"(":{"ha":341,"x_min":35,"x_max":307,"o":"m 35 465 q 103 734 35 608 q 290 947 171 861 q 207 465 207 796 q 307 -37 207 133 q 35 465 35 181 z "},")":{"ha":341,"x_min":35,"x_max":307,"o":"m 35 -37 q 135 465 135 133 q 52 947 135 796 q 239 734 171 861 q 307 465 307 608 q 35 -37 307 181 z "},"*":{"ha":511,"x_min":32,"x_max":479,"o":"m 58 761 q 36 793 40 773 q 43 831 32 812 q 85 856 57 856 q 114 844 98 856 q 256 694 141 826 q 241 747 255 698 q 216 840 227 795 q 205 897 205 884 q 220 933 205 919 q 256 947 234 947 q 302 917 294 947 q 306 895 306 900 q 295 837 306 881 q 270 746 284 793 q 256 694 256 699 q 397 844 370 826 q 416 854 410 852 q 427 856 419 856 q 468 831 454 856 q 476 792 479 812 q 453 761 472 772 q 399 739 440 753 q 307 709 358 725 l 256 694 q 439 597 417 616 q 454 582 446 593 q 443 526 468 555 q 408 509 427 509 q 374 522 392 509 q 256 694 351 541 q 138 522 161 541 q 119 511 127 515 q 104 509 109 509 q 68 526 83 509 q 58 581 45 553 q 72 597 68 594 q 256 694 92 615 l 205 709 q 112 739 153 725 q 58 761 71 753 z "},"+":{"ha":572,"x_min":35,"x_max":538,"o":"m 35 404 l 35 419 l 279 419 l 279 664 l 294 664 l 294 419 l 538 419 l 538 404 l 294 404 l 294 161 l 279 161 l 279 404 l 35 404 z "},",":{"ha":283,"x_min":35,"x_max":249,"o":"m 35 121 q 64 183 35 159 q 139 207 93 207 q 219 175 190 207 q 249 83 249 143 q 201 -57 249 8 q 68 -146 154 -121 l 58 -132 q 150 -24 150 -87 q 115 33 150 12 q 90 48 109 38 q 61 65 71 59 q 43 87 52 72 q 35 121 35 102 z "},"-":{"ha":500,"x_min":35,"x_max":465,"o":"m 35 406 l 35 427 l 465 427 l 465 406 l 35 406 z "},".":{"ha":283,"x_min":35,"x_max":249,"o":"m 35 100 q 64 177 35 148 q 142 207 94 207 q 219 177 190 207 q 249 100 249 148 q 219 23 249 52 q 142 -7 190 -7 q 64 23 94 -7 q 35 100 35 52 z "},"/":{"ha":586,"x_min":35,"x_max":551,"o":"m 35 -37 l 530 949 l 551 949 l 56 -37 l 35 -37 z "},":":{"ha":283,"x_min":35,"x_max":249,"o":"m 35 100 q 64 177 35 148 q 142 207 94 207 q 219 177 190 207 q 249 100 249 148 q 219 23 249 52 q 142 -7 190 -7 q 64 23 94 -7 q 35 100 35 52 m 64 439 q 49 454 64 439 q 35 517 35 469 q 64 594 35 564 q 142 624 94 624 q 219 594 190 624 q 249 517 249 564 q 219 439 249 469 q 142 410 190 410 q 64 439 94 410 z "},";":{"ha":283,"x_min":35,"x_max":249,"o":"m 35 121 q 64 183 35 159 q 139 207 93 207 q 219 175 190 207 q 249 83 249 143 q 201 -57 249 8 q 68 -146 154 -121 l 58 -132 q 150 -24 150 -87 q 138 13 150 -2 q 109 37 126 28 q 75 56 92 46 q 46 81 58 65 q 35 121 35 98 m 64 439 q 49 454 64 439 q 35 517 35 469 q 64 594 35 564 q 142 624 94 624 q 219 594 190 624 q 249 517 249 564 q 219 439 249 469 q 142 410 190 410 q 64 439 94 410 z "},"<":{"ha":640,"x_min":35,"x_max":606,"o":"m 35 290 l 600 589 l 606 579 l 58 290 l 606 1 l 600 -8 l 35 290 z "},"=":{"ha":572,"x_min":35,"x_max":538,"o":"m 35 307 l 35 322 l 538 322 l 538 307 l 35 307 m 35 501 l 35 517 l 538 517 l 538 501 l 35 501 z "},">":{"ha":640,"x_min":35,"x_max":606,"o":"m 35 1 l 582 290 l 35 579 l 40 589 l 606 290 l 40 -8 l 35 1 z "},"?":{"ha":622,"x_min":35,"x_max":587,"o":"m 35 700 q 62 786 35 749 q 132 842 89 823 q 220 871 175 862 q 311 880 266 880 q 406 871 360 880 q 494 842 452 861 q 562 786 536 823 q 587 703 587 750 q 575 643 587 669 q 540 596 564 616 q 493 562 516 576 q 437 528 471 547 q 383 493 404 508 q 290 346 300 435 l 282 272 l 240 272 l 236 346 q 237 389 235 369 q 242 424 239 410 q 253 455 245 439 q 266 479 261 471 q 283 502 270 487 q 299 520 296 516 q 318 539 303 524 q 347 569 336 557 q 369 602 357 581 q 388 649 382 623 q 393 708 393 675 q 372 804 393 767 q 309 842 351 842 q 249 798 264 842 q 238 744 243 781 q 231 697 233 707 q 126 608 210 608 q 79 617 98 608 q 51 641 60 626 q 38 669 42 655 q 35 700 35 684 m 193 16 q 180 29 193 16 q 167 85 167 42 q 193 154 167 127 q 262 180 220 180 q 332 154 305 180 q 358 85 358 127 q 332 16 358 42 q 262 -11 305 -11 q 193 16 220 -11 z "},"@":{"ha":891,"x_min":35,"x_max":857,"o":"m 35 383 q 70 568 35 480 q 166 721 105 656 q 314 823 227 785 q 498 861 401 861 q 758 770 659 861 q 857 521 857 680 q 839 408 857 468 q 790 295 821 349 q 708 207 758 242 q 600 172 658 172 q 513 208 543 172 q 484 302 484 244 q 484 320 484 311 q 486 340 485 329 q 488 357 487 351 q 313 174 428 174 q 256 188 279 174 q 220 227 232 202 q 202 279 208 252 q 197 338 197 307 q 207 426 197 380 q 238 516 217 472 q 288 594 259 559 q 357 650 316 629 q 446 671 399 671 q 546 633 512 671 l 717 675 l 623 265 q 618 236 618 250 q 624 212 618 222 q 644 201 631 201 q 665 205 653 201 q 757 280 717 225 q 816 397 798 335 q 835 515 835 459 q 740 752 835 663 q 496 840 645 840 q 321 802 402 840 q 185 701 240 764 q 98 553 130 637 q 66 378 66 469 q 169 96 66 202 q 446 -11 271 -11 q 737 82 597 -11 q 594 2 675 29 q 428 -25 513 -25 q 220 28 310 -25 q 82 174 130 81 q 35 383 35 266 m 368 346 q 395 289 368 289 q 435 313 416 289 q 471 379 455 336 q 496 456 486 422 q 517 538 507 490 q 530 591 528 585 q 511 597 522 597 q 437 548 472 597 q 386 440 403 498 q 368 346 368 383 z "},"A":{"ha":958,"x_min":35,"x_max":924,"o":"m 35 0 q 179 269 103 79 l 323 632 q 339 713 339 669 q 338 742 339 727 q 296 843 331 802 l 566 901 l 782 292 q 924 0 844 119 l 525 0 q 582 142 582 59 q 562 248 582 191 l 528 347 l 245 347 l 205 248 q 181 143 181 191 q 183 118 182 130 q 244 0 191 61 l 35 0 m 260 379 l 517 379 l 400 721 l 260 379 z "},"B":{"ha":831,"x_min":35,"x_max":798,"o":"m 35 0 q 76 81 62 32 q 90 178 90 130 l 90 701 q 76 798 90 749 q 35 879 62 847 l 468 879 q 677 828 600 879 q 755 676 755 777 q 738 591 755 629 q 692 528 721 553 q 632 489 663 504 q 567 467 601 474 q 644 448 606 463 q 718 408 682 433 q 775 340 753 382 q 798 245 798 298 q 766 134 798 182 q 682 57 735 86 q 562 14 628 28 q 421 0 496 0 l 35 0 m 317 182 q 326 118 317 149 q 359 62 336 86 q 416 37 382 37 l 421 37 q 474 53 452 37 q 505 95 496 69 q 518 140 515 120 q 522 180 522 161 q 512 271 522 225 q 477 361 503 317 q 416 427 452 406 q 351 443 382 443 q 317 437 333 443 l 317 182 m 317 481 q 349 476 334 476 q 459 527 422 476 q 496 656 496 577 q 452 791 496 740 q 329 842 409 842 l 317 842 l 317 481 z "},"C":{"ha":908,"x_min":35,"x_max":873,"o":"m 35 461 q 71 650 35 566 q 171 788 107 734 q 318 871 234 842 q 500 900 402 900 q 842 778 701 900 l 699 439 q 672 590 690 522 q 629 703 653 659 q 577 781 604 748 q 520 830 549 813 q 467 855 491 847 q 421 863 443 863 q 359 841 385 863 q 319 784 333 819 q 300 700 305 749 q 295 624 295 663 q 296 601 296 612 q 304 496 297 551 q 327 379 313 432 q 367 275 341 326 q 427 190 392 224 q 513 134 461 155 q 628 113 564 113 q 682 117 656 113 q 740 135 708 122 q 807 176 772 148 q 873 245 841 204 q 720 54 812 114 q 494 -7 627 -7 q 298 30 387 -7 q 153 131 210 67 q 65 280 96 195 q 35 461 35 365 z "},"D":{"ha":879,"x_min":35,"x_max":844,"o":"m 35 0 q 77 83 63 33 q 90 178 90 134 l 90 701 q 77 795 90 745 q 35 879 63 846 l 429 879 q 575 856 507 879 q 691 791 642 832 q 775 695 740 749 q 827 577 810 640 q 844 446 844 513 q 816 280 844 359 q 735 138 787 201 q 600 38 682 75 q 418 0 517 0 l 35 0 m 317 182 q 321 136 317 159 q 336 90 326 114 q 367 52 346 66 q 416 37 387 37 l 419 37 q 518 98 477 37 q 571 255 559 159 q 576 337 576 294 q 566 472 576 400 q 530 610 553 547 q 479 714 506 673 q 421 785 452 755 q 366 827 391 814 q 319 840 340 840 l 317 840 l 317 182 z "},"E":{"ha":838,"x_min":35,"x_max":804,"o":"m 35 879 l 710 879 l 771 570 q 711 680 745 633 q 639 758 677 727 q 551 807 600 789 q 449 834 502 826 q 329 842 395 842 l 317 842 l 317 471 l 347 471 q 434 480 393 471 q 502 506 474 490 q 552 542 530 522 q 587 583 574 563 q 607 624 600 603 l 607 277 q 579 330 597 304 q 530 380 560 355 q 452 421 500 406 q 347 436 405 436 l 317 436 l 317 182 q 321 136 317 159 q 338 90 326 114 q 375 52 350 66 q 435 37 399 37 l 465 37 q 653 115 563 37 q 804 340 743 193 l 737 0 l 40 0 q 78 84 65 34 q 90 178 90 134 l 90 701 q 77 795 90 745 q 35 879 63 846 z "},"F":{"ha":805,"x_min":35,"x_max":771,"o":"m 35 0 q 79 93 68 44 q 90 216 90 141 l 90 675 q 35 879 90 808 l 710 879 l 771 570 q 721 666 750 623 q 661 736 691 709 q 593 785 631 764 q 523 816 555 806 q 454 833 492 827 q 391 840 416 839 q 335 842 366 842 l 317 842 l 317 447 l 342 447 q 506 484 436 447 q 607 600 576 522 l 607 254 q 506 373 576 333 q 342 412 437 412 l 317 412 l 317 216 q 328 93 317 141 q 372 0 339 44 l 35 0 z "},"G":{"ha":935,"x_min":35,"x_max":900,"o":"m 35 464 q 47 582 35 524 q 93 698 60 639 q 175 801 125 757 q 307 872 225 844 q 490 900 388 900 q 844 778 703 900 l 701 440 q 656 648 692 553 q 560 803 621 743 q 427 863 499 863 q 361 839 389 863 q 321 775 334 816 q 301 691 307 734 q 296 597 296 648 q 306 460 296 534 q 338 310 317 385 q 388 173 359 235 q 457 72 416 111 q 542 33 497 33 q 599 48 573 33 q 640 85 625 63 q 663 130 654 108 q 671 170 671 152 l 671 180 q 665 222 671 201 q 644 269 659 243 q 604 317 628 294 q 538 359 579 339 q 446 392 498 380 l 900 392 q 856 305 868 353 q 844 189 844 258 l 844 -21 q 825 4 842 -18 q 797 39 807 26 q 771 67 787 51 q 746 90 756 83 q 624 16 688 40 q 479 -8 560 -8 q 288 32 374 -8 q 148 138 202 71 q 64 288 93 204 q 35 464 35 372 z "},"H":{"ha":960,"x_min":35,"x_max":925,"o":"m 35 0 q 80 98 71 49 q 90 232 90 146 l 90 656 q 80 786 90 737 q 35 879 69 835 l 372 879 q 327 786 338 835 q 317 656 317 737 l 317 481 l 643 481 l 643 656 q 632 786 643 737 q 587 879 622 835 l 925 879 q 880 786 890 835 q 869 656 869 737 l 869 232 q 879 98 869 146 q 925 0 889 49 l 587 0 q 633 98 623 49 q 643 232 643 146 l 643 446 l 317 446 l 317 232 q 327 98 317 146 q 372 0 336 49 l 35 0 z "},"I":{"ha":407,"x_min":35,"x_max":372,"o":"m 35 0 q 80 98 71 49 q 90 232 90 146 l 90 656 q 80 786 90 737 q 35 879 69 835 l 372 879 q 327 786 338 835 q 317 656 317 737 l 317 232 q 327 98 317 146 q 372 0 336 49 l 35 0 z "},"J":{"ha":469,"x_min":35,"x_max":435,"o":"m 35 -210 q 98 -144 73 -179 q 135 -72 123 -109 q 149 -8 146 -36 q 153 54 153 20 l 153 701 q 139 795 153 745 q 97 879 125 846 l 435 879 q 393 795 406 846 q 379 701 379 745 l 379 302 q 35 -210 379 -109 z "},"K":{"ha":945,"x_min":35,"x_max":911,"o":"m 35 0 q 77 83 63 33 q 90 178 90 134 l 90 701 q 77 795 90 745 q 35 879 63 846 l 372 879 q 330 795 344 846 q 317 701 317 745 l 317 454 l 534 708 q 574 774 564 742 q 580 811 580 795 q 578 829 579 821 q 558 879 572 852 l 815 879 q 716 833 756 863 q 625 743 677 804 l 485 576 l 704 229 q 911 -17 823 43 q 791 -14 839 -17 q 699 -2 743 -12 q 624 22 654 7 q 564 62 595 36 q 508 122 533 89 q 450 207 482 156 l 363 346 q 317 416 322 410 l 317 178 q 330 83 317 134 q 372 0 344 33 l 35 0 z "},"L":{"ha":808,"x_min":35,"x_max":774,"o":"m 35 879 l 372 879 q 327 780 336 833 q 317 639 317 726 l 317 197 q 342 79 317 120 q 418 37 368 37 l 427 37 q 547 64 490 37 q 647 138 604 92 q 720 233 690 184 q 774 338 750 281 l 705 0 l 36 0 q 81 99 72 47 q 90 237 90 151 l 90 639 q 89 709 90 686 q 83 767 88 733 q 67 828 79 802 q 35 879 55 854 z "},"M":{"ha":1258,"x_min":35,"x_max":1223,"o":"m 35 0 q 90 195 90 70 l 90 692 q 35 879 90 810 l 290 879 l 679 114 l 972 879 l 1223 879 q 1180 790 1193 838 q 1168 679 1168 743 l 1168 189 q 1223 0 1168 72 l 886 0 q 930 89 918 41 q 942 199 942 136 l 942 703 l 701 77 l 490 -22 l 125 694 l 125 195 q 180 0 125 75 l 35 0 z "},"N":{"ha":903,"x_min":35,"x_max":868,"o":"m 35 0 q 78 89 66 41 q 90 201 90 136 l 90 677 q 78 791 90 743 q 35 879 65 839 l 258 879 l 778 151 l 778 688 q 722 879 778 806 l 868 879 q 812 688 812 809 l 812 66 l 623 -22 l 125 675 l 125 201 q 180 0 125 73 l 35 0 z "},"O":{"ha":936,"x_min":35,"x_max":901,"o":"m 35 437 q 53 575 35 508 q 108 702 71 642 q 197 805 145 761 q 321 876 249 850 q 476 901 393 901 q 659 864 576 901 q 793 764 741 827 q 873 622 845 701 q 901 454 901 542 q 872 283 901 365 q 790 136 844 201 q 652 32 736 71 q 464 -7 567 -7 q 281 30 363 -7 q 145 129 199 66 q 63 270 92 191 q 35 437 35 350 m 296 595 q 313 440 298 522 q 347 290 326 361 q 396 160 368 218 q 460 67 424 102 q 534 33 496 33 q 600 70 574 33 q 635 168 625 107 q 643 279 643 219 q 642 305 643 292 q 627 461 640 380 q 577 656 608 568 q 500 804 547 745 q 401 863 453 863 q 335 827 361 863 q 301 730 309 791 q 295 630 295 684 q 296 595 295 613 z "},"P":{"ha":789,"x_min":35,"x_max":754,"o":"m 35 0 q 77 83 63 33 q 90 178 90 134 l 90 701 q 76 798 90 749 q 35 879 62 846 l 440 879 q 561 865 505 879 q 660 822 616 850 q 729 745 704 793 q 754 632 754 696 q 735 532 754 577 q 685 457 717 487 q 611 406 654 427 q 521 376 568 385 q 422 367 474 367 q 317 376 377 367 l 317 178 q 331 81 317 130 q 372 0 345 33 l 35 0 m 317 410 q 342 408 325 408 q 452 458 416 408 q 488 595 488 508 q 482 658 488 625 q 463 724 476 690 q 431 783 450 757 q 384 825 412 809 q 321 842 355 842 l 317 842 l 317 410 z "},"Q":{"ha":976,"x_min":35,"x_max":942,"o":"m 35 433 q 65 613 35 528 q 152 762 96 698 q 293 865 208 827 q 479 903 378 903 q 654 867 574 903 q 788 769 734 831 q 871 627 842 708 q 901 457 901 547 q 874 273 901 353 q 794 134 848 192 q 669 38 741 77 q 500 -26 597 -1 q 631 -65 534 -33 q 786 -98 728 -98 q 874 -85 832 -98 q 942 -47 917 -73 q 870 -207 924 -144 q 725 -271 815 -271 q 638 -253 682 -271 q 559 -210 595 -235 q 489 -159 524 -184 q 417 -116 455 -134 q 343 -98 379 -98 q 203 -129 281 -98 l 167 -62 l 371 1 q 131 148 227 31 q 35 433 35 265 m 296 595 q 313 440 298 522 q 323 387 317 414 q 340 318 329 359 q 364 240 351 277 q 395 164 376 203 q 433 97 413 125 q 479 51 453 69 q 534 33 506 33 q 599 69 574 33 q 633 155 624 104 q 642 269 642 206 q 642 277 642 273 q 637 379 642 336 q 627 461 633 426 q 577 656 608 568 q 500 804 547 745 q 401 863 453 863 q 335 827 361 863 q 301 730 310 791 q 295 630 295 684 q 296 595 295 613 z "},"R":{"ha":962,"x_min":35,"x_max":928,"o":"m 35 0 q 76 82 62 33 q 90 178 90 130 l 90 701 q 76 797 90 749 q 35 879 62 846 l 440 879 q 596 856 527 879 q 710 782 666 833 q 754 659 754 730 q 693 512 754 571 q 533 427 631 454 q 682 290 613 402 q 734 207 711 242 q 791 124 758 171 q 859 42 824 78 q 928 -17 894 5 q 845 -16 877 -17 q 775 -12 813 -16 q 713 -3 737 -9 q 660 15 689 3 q 609 42 631 26 q 563 82 588 58 q 515 136 538 105 q 467 207 492 166 q 436 256 456 223 q 406 304 416 288 q 353 380 366 368 q 329 395 339 394 q 317 389 323 395 l 317 178 q 331 82 317 130 q 372 0 345 33 l 35 0 m 317 432 q 347 429 328 429 q 454 478 420 429 q 488 604 488 526 q 482 667 488 635 q 463 731 476 699 q 431 787 450 762 q 384 826 412 811 q 321 842 355 842 l 317 842 l 317 432 z "},"S":{"ha":777,"x_min":35,"x_max":743,"o":"m 35 113 l 35 419 q 161 212 86 303 q 308 74 235 120 q 437 28 380 28 q 511 110 511 28 q 497 170 511 140 q 464 221 484 199 q 413 268 444 243 q 356 307 381 292 q 297 343 332 322 q 245 375 262 364 q 166 431 199 404 q 102 494 133 458 q 56 572 72 529 q 40 665 40 616 q 60 762 40 720 q 111 829 79 804 q 187 872 142 855 q 277 895 231 888 q 374 901 322 901 q 703 798 583 901 l 703 519 q 640 636 676 580 q 554 745 603 692 q 444 830 506 798 q 317 863 381 863 q 235 794 235 863 q 248 739 235 766 q 282 689 261 711 q 335 644 302 667 q 398 602 368 621 q 469 559 429 583 q 493 546 485 551 q 592 480 550 513 q 670 409 634 448 q 725 322 706 369 q 743 221 743 275 q 726 132 743 172 q 680 67 709 93 q 609 24 650 41 q 520 -1 567 7 q 418 -8 473 -8 q 210 22 313 -8 q 35 113 107 52 z "},"T":{"ha":954,"x_min":35,"x_max":920,"o":"m 35 570 l 96 879 l 859 879 l 920 570 q 874 641 900 605 q 815 713 849 677 q 747 778 782 750 q 671 824 712 806 q 593 842 631 842 l 590 842 l 590 205 q 646 0 590 66 l 309 0 q 364 205 364 68 l 364 842 l 358 842 q 262 815 312 842 q 169 745 212 788 q 93 657 126 702 q 35 570 59 613 z "},"U":{"ha":901,"x_min":35,"x_max":867,"o":"m 35 879 l 372 879 q 330 795 344 846 q 317 701 317 745 l 317 395 q 318 331 317 358 q 324 267 319 303 q 337 203 329 230 q 362 148 346 176 q 399 102 378 119 q 454 73 421 84 q 529 61 488 61 q 614 74 576 61 q 677 106 652 86 q 721 157 703 126 q 750 220 740 189 q 767 293 761 252 q 775 369 773 335 q 777 447 777 404 l 777 701 q 763 795 777 745 q 721 879 749 846 l 867 879 q 825 795 838 846 q 811 701 811 745 l 811 437 q 754 136 811 234 q 637 25 713 64 q 456 -14 562 -14 q 287 19 359 -14 q 173 113 216 52 q 111 253 131 174 q 90 431 90 332 l 90 701 q 77 795 90 745 q 35 879 63 846 z "},"V":{"ha":991,"x_min":35,"x_max":957,"o":"m 35 879 l 441 879 q 393 793 406 838 q 385 732 385 763 q 387 704 385 718 q 414 603 392 659 l 582 155 l 783 615 q 808 684 800 654 q 814 740 814 710 q 814 745 814 743 q 798 810 814 778 q 751 879 783 843 l 957 879 q 929 840 943 862 q 901 789 916 819 q 876 738 886 760 q 849 676 867 717 q 822 615 831 635 l 571 52 l 407 -22 q 175 590 195 539 q 35 879 105 772 z "},"W":{"ha":1543,"x_min":35,"x_max":1508,"o":"m 35 879 l 441 879 q 394 793 406 840 q 386 731 386 761 q 388 701 386 716 q 414 600 394 656 l 568 161 q 652 366 576 182 q 743 586 728 549 l 730 621 q 602 879 679 762 l 1007 879 q 963 808 977 844 q 951 745 951 779 q 952 732 952 738 q 962 661 955 692 q 987 579 970 629 l 1136 158 l 1337 621 q 1366 709 1360 671 q 1367 732 1367 721 q 1358 791 1367 760 q 1304 879 1344 833 l 1508 879 q 1460 806 1487 856 q 1420 725 1434 755 q 1372 615 1407 695 l 1124 52 l 960 -22 q 859 262 948 9 q 761 536 769 515 l 559 52 q 480 16 555 50 q 393 -22 406 -18 l 179 579 q 115 739 145 675 q 35 879 85 802 z "},"X":{"ha":1059,"x_min":35,"x_max":1025,"o":"m 35 0 q 165 87 115 43 q 277 220 215 131 l 421 425 l 253 707 q 166 812 218 765 q 64 879 115 859 l 519 879 q 502 823 505 853 q 501 800 500 812 q 504 768 501 783 q 522 709 509 742 q 548 656 536 677 q 578 604 559 635 l 614 543 l 676 632 q 735 757 726 703 q 737 781 737 768 q 713 879 737 825 l 982 879 q 852 792 901 836 q 741 660 802 749 l 635 510 l 790 250 q 1025 0 903 61 l 571 0 q 585 40 581 18 q 589 79 589 61 q 583 121 589 97 q 570 160 576 145 q 551 201 564 176 q 531 239 538 227 q 510 275 525 250 l 440 392 l 340 248 q 282 122 290 176 q 280 98 280 111 q 304 0 280 54 l 35 0 z "},"Y":{"ha":952,"x_min":35,"x_max":918,"o":"m 35 879 l 519 879 q 457 728 457 808 q 489 610 457 671 l 579 435 l 653 559 q 699 649 684 611 q 719 726 715 686 q 720 743 720 734 q 708 803 720 774 q 659 879 693 840 l 918 879 q 737 636 838 813 l 593 386 l 593 178 q 606 83 593 134 q 648 0 620 33 l 311 0 q 353 83 340 33 q 367 178 367 134 l 367 355 l 243 587 q 137 760 185 694 q 35 879 89 826 z "},"Z":{"ha":913,"x_min":35,"x_max":879,"o":"m 35 0 q 208 241 119 84 l 550 842 l 515 842 q 64 570 176 842 q 94 724 74 621 q 125 879 114 827 l 260 879 l 868 879 q 777 764 830 838 q 696 639 724 690 l 354 37 l 439 37 q 641 65 563 37 q 774 157 719 92 q 879 340 829 221 l 812 0 l 35 0 z "},"[":{"ha":347,"x_min":35,"x_max":313,"o":"m 35 -35 l 35 947 l 313 947 l 313 913 l 205 913 l 205 0 l 311 0 l 311 -35 l 35 -35 z "},"\\":{"ha":586,"x_min":35,"x_max":551,"o":"m 35 949 l 56 949 l 551 -37 l 530 -37 l 35 949 z "},"]":{"ha":347,"x_min":35,"x_max":313,"o":"m 35 913 l 35 947 l 313 947 l 313 -35 l 36 -35 l 36 0 l 142 0 l 142 913 l 35 913 z "},"^":{"ha":416,"x_min":35,"x_max":382,"o":"m 35 699 l 208 945 l 382 699 l 372 693 l 208 921 l 45 693 l 35 699 z "},"_":{"ha":773,"x_min":35,"x_max":739,"o":"m 35 -14 l 739 -14 l 739 -29 l 35 -29 l 35 -14 z "},"`":{"ha":391,"x_min":35,"x_max":357,"o":"m 35 765 l 119 907 q 357 700 173 837 l 354 696 l 35 765 z "},"a":{"ha":692,"x_min":35,"x_max":659,"o":"m 35 151 q 42 198 35 176 q 60 238 49 220 q 90 273 71 256 q 126 302 109 290 q 171 326 144 314 q 217 346 197 338 q 267 364 236 354 q 315 378 298 374 q 363 391 333 383 q 406 403 393 399 l 415 406 l 415 431 q 414 476 415 458 q 411 520 414 495 q 401 562 408 545 q 384 594 394 578 q 356 617 373 610 q 315 625 338 625 q 258 609 283 625 q 216 569 233 593 q 186 506 200 545 q 165 431 173 466 q 150 346 158 396 l 57 551 q 69 562 61 555 q 104 585 77 568 q 163 615 132 602 q 246 639 195 629 q 353 650 298 650 q 474 631 425 650 q 551 575 524 613 q 591 485 579 536 q 603 361 603 434 l 603 279 q 617 183 603 232 q 659 102 631 134 l 415 -21 l 415 111 q 211 -8 332 -8 q 86 36 137 -8 q 35 151 35 79 m 218 174 q 243 105 218 130 q 311 81 269 81 q 415 125 369 81 l 415 378 l 407 375 q 275 298 332 351 q 218 174 218 244 z "},"b":{"ha":780,"x_min":35,"x_max":746,"o":"m 35 825 l 278 947 l 278 593 q 450 650 342 650 q 666 559 587 650 q 746 326 746 469 q 719 181 746 245 q 646 76 692 116 q 542 14 600 35 q 418 -7 484 -7 q 189 118 267 -7 l 90 -21 l 90 647 q 76 745 90 694 q 35 825 62 795 m 278 439 q 279 382 278 408 q 283 310 279 355 q 292 228 286 264 q 311 151 298 192 q 340 82 323 110 q 383 37 357 55 q 441 18 409 18 q 493 38 471 18 q 526 91 515 57 q 542 162 537 125 q 547 243 547 199 q 543 329 547 286 q 527 422 539 371 q 494 511 514 473 q 439 574 475 549 q 357 600 404 600 q 278 582 314 600 l 278 439 z "},"c":{"ha":687,"x_min":35,"x_max":653,"o":"m 35 329 q 47 425 35 378 q 88 512 60 471 q 155 583 115 553 q 252 632 195 614 q 376 650 309 650 q 639 561 537 650 l 536 315 q 515 444 529 388 q 483 533 500 500 q 444 588 466 567 q 403 617 422 610 q 363 625 384 625 q 268 563 302 625 q 233 408 233 500 q 242 316 233 362 q 271 228 251 271 q 318 152 290 184 q 388 99 347 119 q 478 79 429 79 q 653 176 577 79 q 540 37 608 81 q 375 -7 471 -7 q 229 22 294 -7 q 121 98 163 50 q 57 205 79 146 q 35 329 35 265 z "},"d":{"ha":780,"x_min":35,"x_max":746,"o":"m 35 317 q 124 557 35 465 q 363 650 214 650 q 503 615 446 650 l 503 647 q 489 744 503 696 q 447 825 475 792 l 690 947 l 690 279 q 746 102 690 170 l 503 -21 l 503 50 q 330 -7 435 -7 q 113 85 192 -7 q 35 317 35 176 m 233 400 q 237 317 233 359 q 254 223 241 275 q 286 134 267 172 q 342 69 306 95 q 424 43 378 43 q 503 61 465 43 l 503 204 q 502 262 503 234 q 497 335 501 290 q 487 416 494 379 q 469 493 481 453 q 440 561 456 534 q 397 607 423 589 q 339 625 371 625 q 282 601 305 625 q 250 536 259 576 q 237 465 240 496 q 233 400 233 434 z "},"e":{"ha":692,"x_min":35,"x_max":659,"o":"m 35 332 q 62 468 35 407 q 135 569 89 530 q 242 629 182 608 q 370 650 302 650 q 582 567 505 650 q 659 328 659 484 l 240 328 q 263 236 248 278 q 306 158 279 194 q 375 100 332 121 q 471 79 417 79 q 562 101 519 79 q 652 182 606 123 q 537 39 606 85 q 370 -7 468 -7 q 191 40 268 -7 q 74 162 113 86 q 35 332 35 239 m 233 415 q 236 355 233 397 l 283 357 q 337 360 315 357 q 382 369 358 362 q 421 387 407 376 q 446 418 436 398 q 456 467 456 439 q 422 576 456 526 q 339 625 389 625 q 287 606 309 625 q 254 553 265 586 q 238 487 243 521 q 233 415 233 452 z "},"f":{"ha":635,"x_min":35,"x_max":602,"o":"m 35 602 l 35 615 l 121 625 l 121 653 q 186 875 121 802 q 389 949 251 949 q 463 943 428 949 q 530 923 498 937 q 582 881 563 909 q 602 815 602 853 q 577 747 602 771 q 511 722 553 722 q 451 747 470 722 q 424 815 433 772 q 420 838 422 821 q 416 860 418 854 q 412 880 415 867 q 405 898 408 892 q 397 911 402 904 q 385 921 392 918 q 370 924 378 924 q 338 914 350 924 q 317 865 326 904 q 309 755 309 827 l 309 625 l 435 625 l 435 602 l 309 602 l 309 195 q 364 0 309 71 l 65 0 q 121 195 121 68 l 121 602 l 35 602 z "},"g":{"ha":817,"x_min":35,"x_max":782,"o":"m 35 -93 q 118 40 35 -12 q 90 114 90 68 q 168 241 90 191 q 107 317 130 272 q 85 411 85 361 q 110 513 85 467 q 175 589 134 559 q 266 634 216 618 q 371 650 317 650 q 558 596 483 650 q 710 685 641 685 q 763 666 745 685 q 782 612 782 647 q 769 566 782 586 q 730 546 755 546 q 678 568 711 546 q 624 590 646 590 q 579 578 600 590 q 648 419 648 514 q 624 317 648 363 q 559 241 600 271 q 469 196 519 212 q 364 180 418 180 q 180 232 254 180 q 163 199 163 221 q 411 129 163 129 q 460 128 441 129 q 509 125 480 127 q 556 118 537 123 q 598 105 576 113 q 636 84 621 97 q 664 54 651 71 q 684 11 677 36 q 690 -45 690 -14 q 671 -144 690 -99 q 621 -220 652 -189 q 546 -273 589 -252 q 454 -305 503 -295 q 355 -315 406 -315 q 253 -301 307 -315 q 149 -261 199 -287 q 67 -191 100 -235 q 35 -93 35 -146 m 93 -21 q 114 -72 93 -49 q 169 -110 134 -95 q 244 -135 204 -124 q 327 -150 283 -145 q 402 -158 370 -155 q 460 -160 435 -160 q 509 -158 483 -160 q 573 -150 536 -156 q 635 -129 611 -144 q 660 -92 660 -114 q 530 -39 660 -39 l 494 -39 q 123 33 205 -39 q 93 -21 93 16 m 250 510 q 260 425 250 474 q 288 325 270 376 q 338 238 306 273 q 408 203 370 203 q 447 216 431 203 q 470 250 463 229 q 480 290 477 271 q 484 332 484 310 q 473 415 484 367 q 445 512 463 463 q 393 595 426 562 q 322 629 361 629 q 285 618 300 629 q 263 587 270 606 q 253 549 256 567 q 250 510 250 530 z "},"h":{"ha":798,"x_min":35,"x_max":764,"o":"m 35 0 q 77 83 63 33 q 90 178 90 134 l 90 647 q 77 742 90 691 q 35 825 63 792 l 278 947 l 278 498 q 518 650 368 650 q 586 640 556 650 q 635 615 616 630 q 669 574 655 600 q 690 524 683 548 q 702 463 698 500 q 707 397 706 425 q 708 326 708 369 l 708 178 q 722 83 708 134 q 764 0 735 33 l 465 0 q 507 83 494 33 q 521 178 521 134 l 521 281 q 515 456 521 415 q 453 557 503 538 q 411 564 435 564 q 278 490 339 564 l 278 178 q 292 83 278 134 q 334 0 305 33 l 35 0 z "},"i":{"ha":368,"x_min":35,"x_max":334,"o":"m 35 0 q 77 83 63 33 q 90 178 90 134 l 90 350 q 77 444 90 394 q 35 528 63 494 l 278 650 l 278 178 q 292 83 278 134 q 334 0 305 33 l 35 0 m 94 900 q 78 885 94 900 q 62 818 62 869 q 94 735 62 767 q 176 704 125 704 q 259 735 227 704 q 290 818 290 767 q 259 900 290 869 q 176 932 227 932 q 94 900 125 932 z "},"j":{"ha":387,"x_min":35,"x_max":353,"o":"m 35 -315 q 90 -258 68 -287 q 125 -203 113 -229 q 143 -141 137 -178 q 151 -77 150 -105 q 153 0 153 -48 l 153 292 q 150 382 153 351 q 135 455 148 414 q 97 528 123 495 q 217 587 111 534 q 340 650 323 641 l 340 186 q 334 60 340 115 q 307 -53 327 5 q 254 -157 288 -111 q 165 -243 220 -202 q 35 -315 110 -285 m 156 735 q 141 751 156 735 q 125 818 125 767 q 156 900 125 869 q 239 932 188 932 q 321 900 290 932 q 353 818 353 869 q 321 735 353 767 q 239 704 290 704 q 156 735 188 704 z "},"k":{"ha":789,"x_min":35,"x_max":754,"o":"m 35 0 q 77 83 63 33 q 90 178 90 134 l 90 647 q 77 742 90 691 q 35 825 63 792 l 278 947 l 278 310 l 424 454 q 465 518 455 486 q 471 555 471 538 q 468 574 471 566 q 447 625 463 597 l 704 625 q 597 576 646 609 q 493 489 548 544 l 424 418 l 576 199 q 683 56 634 116 q 754 -21 732 -5 q 600 -14 635 -19 q 454 58 512 -1 q 411 111 432 81 l 368 174 q 278 275 320 244 l 278 178 q 292 83 278 134 q 334 0 305 33 l 35 0 z "},"l":{"ha":368,"x_min":35,"x_max":334,"o":"m 35 0 q 77 83 63 33 q 90 178 90 134 l 90 647 q 77 742 90 691 q 35 825 63 792 l 278 947 l 278 178 q 292 83 278 134 q 334 0 305 33 l 35 0 z "},"m":{"ha":1172,"x_min":35,"x_max":1137,"o":"m 35 0 q 76 80 61 31 q 90 178 90 130 l 90 350 q 77 444 90 394 q 35 528 63 494 l 278 650 l 278 503 q 371 612 318 574 q 498 650 423 650 q 618 607 578 650 q 671 488 658 565 q 768 609 712 569 q 900 650 823 650 q 977 637 944 650 q 1028 596 1009 624 q 1059 544 1047 569 q 1075 475 1071 519 q 1081 406 1080 431 q 1082 335 1082 381 q 1082 326 1082 329 l 1082 178 q 1096 80 1082 130 q 1137 0 1111 31 l 839 0 q 880 80 865 31 q 895 178 895 130 l 895 281 q 895 307 895 290 q 894 380 895 357 q 891 440 894 404 q 883 493 889 476 q 867 530 877 511 q 840 556 857 549 q 799 564 823 564 q 672 484 730 564 q 681 326 681 416 l 681 178 q 695 80 681 130 q 736 0 709 31 l 437 0 q 478 80 464 31 q 493 178 493 130 l 493 366 q 491 432 493 405 q 483 486 489 460 q 467 529 477 513 q 439 554 457 545 q 397 564 422 564 q 278 492 333 564 l 278 178 q 293 81 278 131 q 334 0 307 32 l 35 0 z "},"n":{"ha":798,"x_min":35,"x_max":764,"o":"m 35 0 q 77 83 63 33 q 90 178 90 134 l 90 350 q 77 444 90 394 q 35 528 63 494 l 278 650 l 278 498 q 518 650 368 650 q 586 640 556 650 q 635 615 616 630 q 669 574 655 600 q 690 524 683 548 q 702 463 698 500 q 707 397 706 425 q 708 326 708 369 l 708 178 q 722 83 708 134 q 764 0 735 33 l 465 0 q 507 83 494 33 q 521 178 521 134 l 521 281 q 515 456 521 415 q 453 557 503 538 q 411 564 435 564 q 278 490 339 564 l 278 178 q 292 83 278 134 q 334 0 305 33 l 35 0 z "},"o":{"ha":725,"x_min":35,"x_max":690,"o":"m 35 315 q 58 438 35 378 q 123 546 81 498 q 229 621 165 593 q 367 650 292 650 q 502 623 439 650 q 604 550 564 595 q 668 447 645 505 q 690 326 690 389 q 667 203 690 262 q 602 96 644 143 q 496 21 560 50 q 358 -7 433 -7 q 187 39 262 -7 q 73 158 112 85 q 35 315 35 231 m 233 428 q 244 315 234 374 q 280 174 257 239 q 338 66 304 109 q 408 22 372 22 q 469 68 447 22 q 492 183 491 114 q 492 191 492 187 q 481 332 492 257 q 445 472 469 408 q 386 580 421 537 q 314 623 351 623 q 265 596 284 623 q 239 526 245 570 q 233 445 233 490 q 233 428 233 437 z "},"p":{"ha":780,"x_min":35,"x_max":746,"o":"m 35 -285 q 76 -203 62 -252 q 90 -107 90 -155 l 90 357 q 76 453 90 404 q 35 534 62 502 l 278 657 l 278 593 q 450 650 343 650 q 667 558 589 650 q 746 326 746 467 q 656 85 746 178 q 418 -7 566 -7 q 278 28 335 -7 l 278 -93 q 347 -285 278 -204 l 35 -285 m 278 439 q 279 390 278 413 q 281 328 279 366 q 289 258 283 290 q 301 189 294 226 q 321 122 309 151 q 350 69 334 94 q 390 32 366 45 q 441 18 413 18 q 490 36 469 18 q 521 77 510 53 q 538 135 532 102 q 546 193 544 169 q 547 243 547 217 q 543 327 547 285 q 527 420 539 369 q 494 510 514 471 q 439 574 475 548 q 357 600 403 600 q 278 582 313 600 l 278 439 z "},"q":{"ha":779,"x_min":35,"x_max":745,"o":"m 35 317 q 124 557 35 465 q 363 650 214 650 q 590 525 517 650 l 689 664 l 689 -107 q 745 -285 689 -219 l 432 -285 q 501 -93 501 -208 l 501 49 q 330 -7 439 -7 q 113 85 192 -7 q 35 317 35 176 m 233 400 q 237 316 233 358 q 253 223 241 274 q 286 133 266 172 q 341 69 305 95 q 424 43 377 43 q 501 60 462 43 l 501 232 q 500 288 501 260 q 495 356 499 315 q 485 432 491 397 q 466 504 478 467 q 437 566 453 541 q 395 609 420 592 q 339 625 370 625 q 282 601 305 625 q 250 537 259 577 q 237 466 240 497 q 233 400 233 435 z "},"r":{"ha":687,"x_min":35,"x_max":653,"o":"m 35 0 q 77 83 63 33 q 90 178 90 134 l 90 350 q 77 444 90 394 q 35 528 63 494 l 278 650 l 278 503 q 369 613 318 576 q 492 650 420 650 q 653 562 609 650 l 559 332 q 502 509 546 455 q 399 564 458 564 q 278 492 333 564 l 278 178 q 292 83 278 134 q 334 0 305 33 l 35 0 z "},"s":{"ha":602,"x_min":35,"x_max":568,"o":"m 35 79 l 35 301 q 131 145 74 212 q 241 47 188 78 q 338 17 294 17 q 384 34 368 17 q 400 78 400 50 q 391 115 400 97 q 371 146 382 133 q 336 177 359 160 q 296 204 313 193 q 248 234 279 215 q 199 264 216 252 q 139 306 164 286 q 89 353 114 326 q 52 412 64 380 q 39 479 39 444 q 104 604 39 559 q 292 650 170 650 q 539 575 452 650 l 539 374 q 470 492 509 441 q 391 571 431 543 q 316 612 351 599 q 249 625 280 625 q 197 610 214 625 q 179 570 179 594 q 182 547 179 558 q 194 526 186 536 q 209 506 201 515 q 232 486 217 496 q 257 467 246 475 q 287 447 268 459 q 318 428 307 435 q 353 408 330 421 q 387 389 376 395 q 441 355 420 370 q 489 319 463 341 q 531 277 515 298 q 557 228 547 256 q 568 168 568 199 q 534 69 568 110 q 445 10 499 28 q 321 -8 390 -8 q 165 14 243 -8 q 35 79 87 35 z "},"t":{"ha":513,"x_min":35,"x_max":479,"o":"m 35 602 l 35 608 q 162 673 98 623 q 253 770 227 722 l 309 770 l 309 625 l 449 625 l 449 602 l 309 602 l 309 357 q 308 327 309 350 q 308 290 308 303 q 309 251 309 276 q 313 211 310 227 q 320 174 315 195 q 332 139 324 153 q 350 114 340 126 q 375 95 360 101 q 408 89 390 89 q 479 109 446 89 q 294 -8 407 -8 q 218 8 251 -8 q 168 49 186 24 q 138 111 149 74 q 124 181 127 147 q 121 256 121 214 l 121 602 l 35 602 z "},"u":{"ha":797,"x_min":35,"x_max":762,"o":"m 35 517 l 277 639 l 277 347 q 282 180 277 216 q 337 87 292 106 q 383 79 356 79 q 519 153 458 79 l 519 350 q 506 444 519 394 q 464 528 492 494 l 707 650 l 707 279 q 720 185 707 235 q 762 102 734 135 l 519 -21 l 519 143 q 279 -7 431 -7 q 194 9 229 -7 q 138 51 158 26 q 107 119 119 77 q 93 201 96 161 q 90 297 90 240 l 90 339 q 77 433 90 383 q 35 517 63 484 z "},"v":{"ha":787,"x_min":35,"x_max":753,"o":"m 35 625 l 371 625 q 332 510 332 581 q 370 343 332 440 l 469 85 l 575 343 q 614 509 614 438 q 574 625 614 580 l 753 625 q 703 563 728 603 q 664 491 678 523 q 628 406 650 460 l 486 62 l 321 -21 l 157 406 q 131 471 138 454 q 107 526 124 489 q 73 586 90 563 q 35 625 56 608 z "},"w":{"ha":1218,"x_min":35,"x_max":1183,"o":"m 35 625 l 371 625 q 331 515 334 583 q 330 502 331 509 q 354 385 330 442 l 469 85 l 586 383 l 568 428 q 535 506 548 477 q 499 571 522 535 q 454 625 477 608 l 791 625 q 762 577 772 603 q 751 522 751 551 q 751 516 751 519 q 754 468 751 490 q 768 410 757 444 q 786 357 779 377 q 807 304 793 338 l 899 85 l 1004 339 q 1044 507 1044 435 q 1004 625 1044 578 l 1183 625 q 1152 590 1167 610 q 1126 551 1137 569 q 1100 502 1115 534 q 1078 453 1085 470 q 1054 395 1070 435 q 1031 339 1038 355 l 917 62 l 750 -21 l 599 350 l 486 62 l 321 -21 l 174 361 q 160 396 171 368 q 146 433 150 425 q 133 467 143 442 q 119 501 123 491 q 105 530 114 511 q 89 560 96 550 q 73 584 82 570 q 54 608 64 598 q 35 625 45 617 z "},"x":{"ha":872,"x_min":35,"x_max":838,"o":"m 35 0 q 111 42 76 19 q 177 97 146 66 q 231 155 209 129 q 288 224 253 180 l 343 296 l 229 453 q 138 558 189 509 q 40 625 88 607 l 453 625 q 433 551 433 587 q 433 547 433 549 q 500 367 433 465 l 568 454 q 596 528 596 489 q 596 533 596 530 q 550 625 593 573 l 838 625 q 627 489 703 588 l 514 346 l 642 172 q 732 67 682 116 q 831 0 783 18 l 419 0 q 439 75 439 33 q 436 106 439 90 q 358 273 427 175 l 278 171 q 250 98 250 136 q 250 92 250 95 q 296 0 253 52 l 35 0 z "},"y":{"ha":836,"x_min":35,"x_max":802,"o":"m 35 625 l 378 625 q 340 553 351 593 q 336 510 336 533 q 339 469 336 490 q 360 388 348 425 q 396 298 373 351 l 490 83 l 610 328 q 659 504 659 428 q 616 625 659 575 l 802 625 q 778 598 789 614 q 752 556 766 582 q 729 511 739 530 q 699 450 719 491 q 667 385 679 410 l 408 -126 q 312 -269 359 -224 q 191 -314 264 -314 q 66 -292 135 -314 l 66 -28 q 116 -91 85 -58 q 193 -151 146 -123 q 283 -178 240 -178 q 383 -115 351 -178 l 385 -113 l 167 383 q 137 453 157 406 q 107 523 117 501 q 77 574 97 544 q 35 625 58 604 z "},"z":{"ha":720,"x_min":35,"x_max":686,"o":"m 35 0 q 160 182 113 99 l 418 600 l 376 600 l 335 600 q 49 393 175 600 l 119 639 q 296 625 189 625 l 681 625 q 555 444 614 545 l 296 25 l 395 25 q 457 37 423 25 q 530 73 491 48 q 611 142 570 97 q 686 245 652 186 l 615 0 l 35 0 z "},"{":{"ha":344,"x_min":35,"x_max":310,"o":"m 35 443 l 35 471 q 75 495 63 475 q 87 550 87 515 q 80 631 87 575 q 70 723 73 686 q 75 814 67 760 q 107 882 84 854 q 164 924 130 910 q 233 942 199 937 q 310 947 267 947 q 250 903 267 935 q 233 823 233 872 q 243 722 234 798 q 250 607 252 646 q 245 568 250 585 q 229 531 241 551 q 197 497 217 511 q 142 472 177 483 q 60 457 107 461 q 142 442 107 453 q 197 417 177 431 q 229 383 217 403 q 245 346 241 363 q 250 307 250 329 q 243 192 252 268 q 233 90 234 115 q 250 11 233 41 q 310 -33 267 -20 q 249 -31 276 -33 q 191 -19 221 -28 q 139 3 161 -11 q 100 42 117 18 q 75 100 83 66 q 70 191 67 154 q 80 283 73 227 q 87 364 87 339 q 75 419 87 399 q 35 443 63 439 z "},"|":{"ha":92,"x_min":35,"x_max":57,"o":"m 35 -220 l 35 949 l 57 949 l 57 -220 l 35 -220 z "},"}":{"ha":344,"x_min":35,"x_max":310,"o":"m 35 -33 q 94 11 77 -20 q 111 90 111 41 q 101 192 111 115 q 94 307 92 268 q 99 346 95 329 q 115 383 103 363 q 148 417 127 403 q 202 442 168 431 q 285 457 237 453 q 202 472 237 461 q 148 497 168 483 q 115 531 127 511 q 99 568 103 551 q 94 607 95 585 q 101 722 92 646 q 111 823 111 798 q 94 903 111 872 q 35 947 77 935 q 112 942 77 947 q 180 924 146 937 q 237 882 214 910 q 269 814 260 854 q 275 723 277 760 q 264 631 272 686 q 257 550 257 575 q 269 495 257 515 q 310 471 281 475 l 310 443 q 269 419 281 439 q 257 364 257 399 q 264 283 257 339 q 275 191 272 227 q 269 100 277 154 q 244 42 262 66 q 205 3 227 18 q 154 -19 184 -11 q 96 -31 123 -28 q 35 -33 68 -33 z "},"~":{"ha":700,"x_min":35,"x_max":665,"o":"m 35 382 q 180 505 98 505 q 246 491 211 505 q 314 455 281 476 q 380 414 347 435 q 448 378 412 393 q 513 363 483 363 q 590 392 554 363 q 661 493 625 422 l 665 490 q 513 353 602 353 q 430 374 476 353 q 347 422 384 396 q 263 472 309 449 q 183 496 218 494 l 179 496 q 40 379 98 496 l 35 382 z "}," ":{"ha":229,"x_min":0,"x_max":0,"o":""},"¡":{"ha":261,"x_min":31,"x_max":229,"o":"m 61 445 q 48 458 61 445 q 35 514 35 471 q 61 583 35 557 q 131 610 88 610 q 200 583 174 610 q 227 514 227 557 q 200 445 227 471 q 131 418 174 418 q 61 445 88 418 m 39 -157 q 110 326 96 233 l 151 326 q 222 -157 165 233 q 208 -249 229 -214 q 131 -285 187 -285 q 53 -249 75 -285 q 39 -157 31 -214 z "},"¢":{"ha":686,"x_min":35,"x_max":652,"o":"m 35 332 q 62 468 35 407 q 136 569 89 530 q 245 629 183 608 q 378 650 307 650 q 412 648 400 650 l 432 781 l 454 781 l 433 647 q 637 561 557 632 l 534 315 q 427 600 512 540 l 353 113 q 472 79 403 79 q 652 176 576 79 q 538 37 607 81 q 374 -7 470 -7 q 335 -5 347 -7 l 315 -136 l 293 -136 l 314 -3 q 109 110 184 17 q 35 332 35 203 m 233 416 q 257 252 233 331 q 334 127 281 174 l 407 612 q 354 625 382 625 q 233 416 233 625 z "},"£":{"ha":825,"x_min":35,"x_max":790,"o":"m 35 382 l 68 416 l 135 416 l 135 596 q 160 739 135 677 q 230 835 185 800 q 330 888 274 871 q 454 905 387 905 q 594 882 534 905 q 718 811 654 859 l 718 517 q 567 766 624 692 q 460 850 510 840 q 437 852 446 852 q 367 791 380 852 q 361 711 361 765 l 361 416 l 578 416 l 545 382 l 361 382 l 361 37 l 465 37 q 651 106 562 37 q 790 268 740 174 l 737 0 l 37 0 q 115 121 94 67 q 135 261 135 175 l 135 382 l 35 382 z "},"¤":{"ha":359,"x_min":18,"x_max":339,"o":"m 42 633 q 40 637 42 633 q 35 648 37 640 q 39 661 33 656 q 49 665 43 665 q 104 614 71 665 q 180 639 136 639 q 256 615 226 639 q 311 665 290 665 q 321 661 317 665 q 325 649 327 656 q 318 634 323 641 q 304 619 313 627 q 289 606 296 611 q 275 596 282 601 q 297 522 297 565 q 273 447 297 477 q 321 380 339 399 q 311 376 317 376 q 256 428 292 376 q 180 404 224 404 q 106 429 135 404 q 49 376 69 376 q 39 380 43 376 q 87 447 18 401 q 64 522 64 477 q 86 595 64 562 q 72 605 79 600 q 56 618 65 610 q 42 633 47 627 m 82 522 q 109 450 82 477 q 180 422 136 422 q 252 450 224 422 q 279 522 279 477 q 252 593 279 566 q 180 621 224 621 q 110 593 137 621 q 82 522 82 566 z "},"¥":{"ha":952,"x_min":35,"x_max":918,"o":"m 35 879 l 519 879 q 458 739 463 815 q 489 610 454 677 l 579 435 l 653 559 q 718 728 715 665 q 659 879 724 806 l 918 879 q 847 804 882 848 q 791 726 812 759 q 737 636 770 692 l 596 392 l 794 392 l 794 376 l 593 376 l 593 243 l 794 243 l 794 228 l 593 228 l 593 178 q 607 81 593 130 q 648 0 621 33 l 311 0 q 353 81 339 33 q 367 178 367 130 l 367 228 l 167 228 l 167 243 l 367 243 l 367 355 l 355 376 l 167 376 l 167 392 l 347 392 l 243 587 q 35 879 147 772 z "},"¦":{"ha":92,"x_min":35,"x_max":57,"o":"m 35 -220 l 35 228 l 57 228 l 57 -220 l 35 -220 m 35 485 l 35 947 l 57 947 l 57 485 l 35 485 z "},"§":{"ha":555,"x_min":35,"x_max":521,"o":"m 35 71 l 35 273 q 80 191 52 234 q 143 107 107 149 q 224 40 179 66 q 311 14 269 14 q 353 28 337 14 q 368 69 368 43 q 359 108 368 90 q 327 145 349 127 q 287 176 304 164 q 234 210 271 187 q 182 241 197 232 q 76 330 114 286 q 39 436 39 374 q 86 540 39 503 q 207 587 134 577 q 89 677 139 621 q 39 799 39 734 q 60 876 39 844 q 116 924 81 907 q 190 947 152 940 q 269 954 227 954 q 494 885 414 954 l 494 701 q 451 780 476 741 q 392 853 425 818 q 315 909 358 888 q 229 930 273 930 q 185 918 203 930 q 167 880 167 905 q 175 848 167 864 q 195 820 184 831 q 229 792 205 808 q 267 768 252 777 q 313 741 281 759 q 358 715 344 724 q 419 676 394 694 q 470 632 445 657 q 508 578 495 608 q 521 514 521 548 q 471 406 521 446 q 349 357 421 367 q 470 273 418 327 q 521 153 521 218 q 507 88 521 117 q 470 42 492 60 q 416 13 447 24 q 354 -3 385 1 q 290 -8 323 -8 q 152 12 222 -8 q 35 71 81 32 m 167 513 q 178 475 167 494 q 203 444 190 456 q 242 416 216 432 q 278 395 268 400 q 314 376 289 389 q 354 392 339 378 q 368 432 368 407 q 360 464 368 448 q 345 490 353 479 q 317 515 336 500 q 289 536 298 530 q 257 556 280 542 q 231 572 233 571 q 199 562 210 566 q 177 544 188 557 q 167 513 167 532 z "},"¨":{"ha":443,"x_min":35,"x_max":408,"o":"m 58 726 q 46 738 58 726 q 35 787 35 750 q 58 848 35 825 q 119 872 81 872 q 181 848 157 872 q 204 787 204 825 q 181 726 204 750 q 119 703 157 703 q 58 726 81 703 m 262 726 q 251 738 262 726 q 239 787 239 750 q 262 848 239 825 q 323 872 286 872 q 385 848 361 872 q 408 787 408 825 q 385 726 408 750 q 323 703 361 703 q 262 726 286 703 z "},"©":{"ha":854,"x_min":35,"x_max":819,"o":"m 35 379 q 143 663 35 555 q 428 771 252 771 q 711 663 603 771 q 819 379 819 555 q 712 94 819 202 q 428 -14 605 -14 q 143 94 251 -14 q 35 379 35 202 m 56 379 q 158 109 56 212 q 428 7 260 7 q 697 110 595 7 q 799 379 799 212 q 697 648 799 546 q 428 750 595 750 q 158 648 261 750 q 56 379 56 546 m 186 392 q 201 481 186 439 q 248 557 217 523 q 328 613 278 592 q 441 633 378 633 q 640 567 564 633 l 562 382 q 541 497 555 449 q 508 569 527 545 q 471 604 490 593 q 433 614 453 614 q 361 567 387 614 q 335 452 335 521 q 346 365 335 408 q 379 286 357 323 q 438 227 401 250 q 521 204 475 204 q 652 277 595 204 q 566 172 618 205 q 443 139 515 139 q 332 161 382 139 q 251 218 282 182 q 203 299 220 254 q 186 392 186 344 z "},"ª":{"ha":517,"x_min":35,"x_max":484,"o":"m 35 521 q 48 575 35 550 q 86 618 61 600 q 136 650 111 636 q 197 674 161 663 q 255 690 233 684 q 309 701 278 695 l 309 724 q 308 761 309 745 q 303 797 307 776 q 292 830 299 817 q 270 852 284 843 q 236 861 256 861 q 202 853 218 861 q 176 833 186 845 q 155 802 165 822 q 140 767 146 783 q 130 728 135 751 q 123 692 125 704 q 118 660 121 680 l 52 808 q 147 861 86 843 q 264 879 208 879 q 403 834 365 879 q 441 684 441 789 l 441 663 q 484 485 441 532 l 309 396 l 309 490 q 189 407 260 418 q 176 406 185 407 q 163 406 167 406 q 82 429 117 406 q 37 492 47 452 q 35 521 35 511 m 167 538 q 185 488 167 507 q 233 469 203 469 q 309 501 275 469 l 309 684 q 209 632 252 671 q 167 538 167 593 z "},"«":{"ha":684,"x_min":35,"x_max":650,"o":"m 35 288 l 433 586 l 441 576 l 57 288 l 441 -1 l 433 -11 l 35 288 m 243 288 l 642 586 l 650 576 l 265 288 l 650 -1 l 642 -11 l 243 288 z "},"­":{"ha":661,"x_min":35,"x_max":627,"o":"m 35 338 l 35 351 l 627 351 l 627 338 l 35 338 z "},"®":{"ha":694,"x_min":35,"x_max":660,"o":"m 35 591 q 121 817 35 731 q 347 903 207 903 q 574 817 488 903 q 660 591 660 731 q 574 364 660 450 q 347 278 488 278 q 121 364 207 278 q 35 591 35 450 m 52 591 q 133 376 52 457 q 347 294 214 294 q 562 376 481 294 q 643 591 643 457 q 562 805 643 724 q 347 886 480 886 q 133 805 214 886 q 52 591 52 724 m 218 452 q 237 514 237 472 l 237 713 q 218 761 233 745 l 361 761 q 440 741 409 761 q 472 684 472 722 q 451 632 472 653 q 395 602 429 612 q 458 536 422 595 q 461 532 460 533 q 533 444 504 467 q 435 458 468 444 q 372 522 401 473 q 352 555 368 532 q 328 587 336 579 l 322 590 l 318 589 l 318 500 q 338 452 323 469 l 218 452 m 318 604 q 329 603 319 603 q 342 604 338 603 q 372 627 365 609 q 379 673 379 645 q 347 739 374 721 q 322 749 338 749 l 318 749 l 318 604 z "},"¯":{"ha":368,"x_min":35,"x_max":334,"o":"m 35 742 l 35 818 l 334 818 l 334 742 l 35 742 z "},"°":{"ha":435,"x_min":35,"x_max":400,"o":"m 35 692 q 89 821 35 768 q 220 873 142 873 q 347 820 294 873 q 400 690 400 766 q 347 562 400 614 q 220 509 294 509 q 89 562 142 509 q 35 692 35 614 m 117 692 q 147 621 117 651 q 218 590 178 590 q 288 620 258 590 q 318 690 318 650 q 289 762 318 733 q 216 791 259 791 q 146 763 175 791 q 117 692 117 734 z "},"±":{"ha":572,"x_min":35,"x_max":538,"o":"m 35 404 l 35 419 l 279 419 l 279 664 l 294 664 l 294 419 l 538 419 l 538 404 l 294 404 l 294 161 l 279 161 l 279 404 l 35 404 m 49 0 l 49 14 l 524 14 l 524 0 l 49 0 z "},"²":{"ha":440,"x_min":35,"x_max":406,"o":"m 35 435 q 80 471 56 451 q 141 529 104 492 q 204 605 177 567 q 252 694 232 644 q 272 791 272 744 q 222 860 272 860 q 199 856 209 860 q 172 837 184 850 q 151 807 159 823 q 134 765 142 792 q 120 718 125 737 q 106 664 115 699 l 54 817 q 232 879 133 879 q 289 873 262 879 q 340 856 316 868 q 378 820 364 843 q 392 764 392 796 q 386 722 392 742 q 367 682 380 701 q 342 649 353 663 q 308 617 331 635 q 274 590 285 599 q 235 563 262 582 q 200 539 208 544 q 183 527 195 535 q 165 515 171 519 l 235 515 q 334 531 296 515 q 406 595 372 547 l 371 415 l 56 415 l 35 435 z "},"³":{"ha":427,"x_min":35,"x_max":393,"o":"m 35 456 l 89 615 q 94 573 92 588 q 100 533 96 557 q 111 494 104 508 q 128 464 118 479 q 154 442 138 449 q 189 435 170 435 q 238 452 219 435 q 263 491 258 470 q 269 534 269 511 q 232 628 269 591 q 138 665 194 665 q 107 663 129 665 l 97 688 q 197 747 163 710 q 231 817 232 783 q 217 848 229 836 q 183 860 204 860 q 126 825 146 860 q 102 736 106 791 l 56 840 q 212 879 117 879 q 269 873 243 879 q 315 850 294 868 q 335 803 335 832 q 304 734 335 764 q 231 693 273 704 q 346 657 298 693 q 393 555 393 621 q 374 484 393 514 q 322 438 355 454 q 254 416 289 423 q 180 410 219 410 q 35 456 94 415 z "},"´":{"ha":391,"x_min":35,"x_max":357,"o":"m 35 700 q 272 907 218 837 l 357 765 l 37 696 l 35 700 z "},"¶":{"ha":668,"x_min":33,"x_max":633,"o":"m 35 536 q 51 662 33 602 q 104 769 69 722 q 197 844 140 816 q 326 872 254 872 l 633 872 l 633 859 l 611 859 q 563 848 583 859 q 532 822 543 838 q 515 782 521 806 q 507 738 509 758 q 505 692 505 718 l 505 57 q 476 -157 505 -69 q 363 -317 447 -245 q 418 -242 395 -281 q 453 -171 441 -202 q 470 -96 465 -139 q 477 -27 476 -53 q 478 43 478 -1 l 478 347 q 407 282 455 308 q 296 257 358 257 q 224 266 259 257 q 154 296 189 275 q 94 349 120 317 q 52 428 68 380 q 35 536 35 477 z "},"·":{"ha":283,"x_min":35,"x_max":249,"o":"m 64 315 q 49 330 64 315 q 35 392 35 345 q 64 469 35 439 q 142 498 94 498 q 219 469 190 498 q 249 392 249 439 q 219 315 249 345 q 142 285 190 285 q 64 315 94 285 z "},"¸":{"ha":240,"x_min":35,"x_max":205,"o":"m 35 -214 l 37 -196 q 61 -200 47 -200 q 92 -189 80 -200 q 104 -155 104 -178 q 86 -109 104 -133 q 68 -68 68 -85 q 68 -59 68 -64 q 70 -52 69 -55 q 74 -44 71 -48 q 77 -38 76 -40 q 81 -32 78 -36 q 85 -27 85 -28 q 90 -22 86 -26 q 94 -17 94 -18 l 110 0 l 151 0 l 140 -14 q 119 -52 119 -37 q 133 -75 119 -64 q 162 -93 146 -86 q 192 -117 178 -100 q 205 -157 205 -134 q 179 -213 205 -193 q 111 -233 152 -233 q 35 -214 75 -233 z "},"¹":{"ha":281,"x_min":35,"x_max":248,"o":"m 35 412 q 83 509 83 443 l 83 717 q 35 812 83 782 l 199 892 l 199 509 q 248 412 199 443 l 35 412 z "},"º":{"ha":490,"x_min":35,"x_max":456,"o":"m 35 636 q 59 754 35 699 q 133 845 83 809 q 249 880 183 880 q 400 810 345 880 q 456 643 456 741 q 442 553 456 596 q 402 476 428 511 q 334 422 376 442 q 243 401 293 401 q 91 470 147 401 q 35 636 35 539 m 158 637 q 206 488 172 553 q 278 422 241 422 q 320 456 304 422 q 338 541 336 490 q 332 650 340 591 q 284 797 318 733 q 212 860 250 860 q 158 790 173 860 q 158 637 143 721 z "},"»":{"ha":684,"x_min":35,"x_max":650,"o":"m 35 -1 l 419 288 l 35 576 l 43 586 l 441 288 l 43 -11 l 35 -1 m 243 -1 l 628 288 l 243 576 l 252 586 l 650 288 l 252 -11 l 243 -1 z "},"¿":{"ha":622,"x_min":35,"x_max":587,"o":"m 35 -104 q 45 -48 35 -73 q 79 -2 56 -22 q 123 32 102 18 q 177 65 143 45 q 229 97 211 85 q 299 163 273 126 q 332 253 326 199 l 340 326 l 382 326 l 386 253 q 374 123 391 172 q 325 43 357 75 q 292 12 315 32 q 259 -20 270 -9 q 239 -56 249 -32 q 229 -109 229 -79 q 250 -206 229 -169 q 314 -243 271 -243 q 348 -235 334 -243 q 368 -209 361 -227 q 379 -177 376 -192 q 386 -137 382 -163 q 392 -98 389 -111 q 401 -70 396 -82 q 418 -42 407 -57 q 449 -18 429 -26 q 497 -9 469 -9 q 568 -37 548 -9 q 587 -102 587 -65 q 560 -188 587 -151 q 490 -244 533 -224 q 402 -273 447 -264 q 313 -282 357 -282 q 253 -278 283 -282 q 191 -267 223 -275 q 131 -245 159 -259 q 82 -212 104 -231 q 47 -165 60 -193 q 35 -104 35 -138 m 290 583 q 277 570 290 583 q 264 514 264 557 q 290 445 264 471 q 359 418 317 418 q 429 445 402 418 q 456 514 456 471 q 429 583 456 557 q 359 610 402 610 q 290 583 317 610 z "},"À":{"ha":958,"x_min":35,"x_max":924,"o":"m 35 0 q 179 269 103 79 l 323 632 q 338 742 345 682 q 296 843 331 802 l 566 901 l 782 292 q 924 0 844 119 l 525 0 q 562 248 615 94 l 528 347 l 245 347 l 205 248 q 183 118 174 175 q 244 0 191 60 l 35 0 m 260 379 l 517 379 l 400 721 l 260 379 m 277 1017 l 361 1158 q 599 951 413 1090 l 596 947 l 277 1017 z "},"Á":{"ha":958,"x_min":35,"x_max":924,"o":"m 35 0 q 179 269 103 79 l 323 632 q 338 742 345 682 q 296 843 331 802 l 566 901 l 782 292 q 924 0 844 119 l 525 0 q 562 248 615 94 l 528 347 l 245 347 l 205 248 q 183 118 174 175 q 244 0 191 60 l 35 0 m 260 379 l 517 379 l 400 721 l 260 379 m 325 949 q 562 1156 509 1086 l 647 1014 l 328 945 l 325 949 z "},"Â":{"ha":958,"x_min":35,"x_max":924,"o":"m 35 0 q 179 269 103 79 l 323 632 q 338 742 345 682 q 296 843 331 802 l 566 901 l 782 292 q 924 0 844 119 l 525 0 q 562 248 615 94 l 528 347 l 245 347 l 205 248 q 183 118 174 175 q 244 0 191 60 l 35 0 m 258 943 q 419 1129 344 1034 l 489 1129 q 650 943 564 1034 l 647 939 q 454 1026 490 1012 q 261 939 359 987 l 258 943 m 260 379 l 517 379 l 400 721 l 260 379 z "},"Ã":{"ha":958,"x_min":35,"x_max":924,"o":"m 35 0 q 179 269 103 79 l 323 632 q 338 742 345 682 q 296 843 331 802 l 566 901 l 782 292 q 924 0 844 119 l 525 0 q 562 248 615 94 l 528 347 l 245 347 l 205 248 q 183 118 174 175 q 244 0 191 60 l 35 0 m 260 379 l 517 379 l 400 721 l 260 379 m 298 946 q 319 998 309 977 q 344 1041 329 1020 q 380 1073 359 1062 q 428 1084 401 1084 q 503 1064 456 1084 q 572 1044 549 1044 q 650 1088 611 1044 l 657 1083 q 647 1049 654 1067 q 626 1011 639 1031 q 590 979 612 991 q 541 966 568 966 q 464 986 511 966 q 399 1006 418 1006 q 378 1002 389 1006 q 360 995 368 999 q 343 983 353 991 q 330 970 334 975 q 316 956 326 966 q 304 943 306 945 l 298 946 z "},"Ä":{"ha":958,"x_min":35,"x_max":924,"o":"m 35 0 q 179 269 103 79 l 323 632 q 338 742 345 682 q 296 843 331 802 l 566 901 l 782 292 q 924 0 844 119 l 525 0 q 562 248 615 94 l 528 347 l 245 347 l 205 248 q 183 118 174 175 q 244 0 191 60 l 35 0 m 260 379 l 517 379 l 400 721 l 260 379 m 293 975 q 281 987 293 975 q 269 1036 269 998 q 293 1098 269 1074 q 354 1121 316 1121 q 415 1098 392 1121 q 439 1036 439 1074 q 415 975 439 998 q 354 951 392 951 q 293 975 316 951 m 497 975 q 485 987 497 975 q 473 1036 473 998 q 497 1098 473 1074 q 558 1121 521 1121 q 619 1098 595 1121 q 643 1036 643 1074 q 619 975 643 998 q 558 951 595 951 q 497 975 521 951 z "},"Å":{"ha":958,"x_min":35,"x_max":924,"o":"m 35 0 q 179 269 103 79 l 323 632 q 338 742 345 682 q 296 843 331 802 l 566 901 l 782 292 q 924 0 844 119 l 525 0 q 562 248 615 94 l 528 347 l 245 347 l 205 248 q 183 118 174 175 q 244 0 191 60 l 35 0 m 260 379 l 517 379 l 400 721 l 260 379 m 346 1013 q 371 1071 346 1047 q 431 1095 396 1095 q 492 1069 467 1095 q 517 1008 517 1044 q 492 949 517 974 q 433 925 468 925 q 372 951 397 925 q 346 1013 346 977 m 404 1011 q 412 991 404 999 q 432 983 420 983 q 457 1010 457 983 q 450 1029 457 1021 q 432 1036 444 1036 q 412 1029 420 1036 q 404 1011 404 1021 z "},"Æ":{"ha":1350,"x_min":35,"x_max":1315,"o":"m 35 0 q 249 269 183 172 l 514 668 q 536 745 537 703 q 522 821 536 788 q 486 879 507 854 l 1221 879 l 1282 570 q 1205 703 1249 649 q 1103 786 1161 756 q 981 829 1046 817 q 831 842 916 842 l 828 842 l 828 471 l 859 471 q 965 486 915 471 q 1058 536 1015 501 q 1118 624 1100 572 l 1118 277 q 1019 395 1090 355 q 859 436 947 436 l 828 436 l 828 182 q 833 136 828 159 q 849 90 838 114 q 886 52 861 66 q 946 37 911 37 l 977 37 q 1070 56 1025 37 q 1151 104 1116 75 q 1219 174 1187 134 q 1274 256 1251 215 q 1315 340 1297 296 l 1249 0 l 546 0 q 587 81 573 32 q 602 178 602 130 l 602 347 l 342 347 l 275 248 q 272 0 180 107 l 35 0 m 363 379 l 602 379 l 602 734 l 600 734 l 363 379 z "},"Ç":{"ha":908,"x_min":35,"x_max":873,"o":"m 35 461 q 71 650 35 566 q 171 788 107 734 q 318 871 234 842 q 500 900 402 900 q 842 778 701 900 l 699 439 q 672 590 690 522 q 629 703 653 659 q 577 781 604 748 q 520 830 549 813 q 467 855 491 847 q 421 863 443 863 q 359 841 385 863 q 319 784 333 819 q 299 700 305 749 q 295 601 294 652 q 304 496 297 551 q 327 379 313 432 q 367 275 341 326 q 427 190 392 224 q 513 134 461 155 q 628 113 564 113 q 682 117 656 113 q 740 135 708 122 q 807 176 772 148 q 873 245 841 204 q 719 53 811 112 q 479 -7 626 -7 l 473 -14 q 453 -52 453 -37 q 467 -75 453 -64 q 496 -93 480 -86 q 526 -117 512 -100 q 539 -157 539 -134 q 512 -213 539 -193 q 444 -233 485 -233 q 368 -214 409 -233 l 371 -196 q 395 -200 381 -200 q 425 -189 413 -200 q 437 -155 437 -178 q 419 -109 437 -133 q 401 -68 401 -85 q 402 -59 401 -64 q 404 -52 403 -55 q 407 -44 405 -48 q 411 -38 410 -40 q 415 -32 412 -36 q 419 -27 418 -28 q 424 -22 420 -26 q 428 -17 427 -18 l 439 -4 q 219 74 312 8 q 80 240 126 140 q 35 461 35 340 z "},"È":{"ha":838,"x_min":35,"x_max":804,"o":"m 35 879 l 710 879 l 771 570 q 711 680 745 633 q 639 758 677 727 q 551 807 600 789 q 449 834 502 826 q 329 842 395 842 l 317 842 l 317 471 l 347 471 q 434 480 393 471 q 502 506 474 490 q 552 542 530 522 q 587 583 574 563 q 607 624 600 603 l 607 277 q 579 330 597 304 q 530 380 560 355 q 452 421 500 406 q 347 436 405 436 l 317 436 l 317 182 q 321 136 317 159 q 338 90 326 114 q 375 52 350 66 q 435 37 399 37 l 465 37 q 653 115 563 37 q 804 340 743 193 l 737 0 l 40 0 q 78 84 65 34 q 90 178 90 134 l 90 701 q 77 795 90 745 q 35 879 63 846 m 196 1014 l 281 1156 q 518 949 334 1086 l 515 945 q 354 980 492 950 q 196 1014 216 1009 z "},"É":{"ha":838,"x_min":35,"x_max":804,"o":"m 35 879 l 710 879 l 771 570 q 711 680 745 633 q 639 758 677 727 q 551 807 600 789 q 449 834 502 826 q 329 842 395 842 l 317 842 l 317 471 l 347 471 q 434 480 393 471 q 502 506 474 490 q 552 542 530 522 q 587 583 574 563 q 607 624 600 603 l 607 277 q 579 330 597 304 q 530 380 560 355 q 452 421 500 406 q 347 436 405 436 l 317 436 l 317 182 q 321 136 317 159 q 338 90 326 114 q 375 52 350 66 q 435 37 399 37 l 465 37 q 653 115 563 37 q 804 340 743 193 l 737 0 l 40 0 q 78 84 65 34 q 90 178 90 134 l 90 701 q 77 795 90 745 q 35 879 63 846 m 258 949 q 496 1156 442 1086 l 581 1014 l 261 945 l 258 949 z "},"Ê":{"ha":838,"x_min":35,"x_max":804,"o":"m 35 879 l 710 879 l 771 570 q 711 680 745 633 q 639 758 677 727 q 551 807 600 789 q 449 834 502 826 q 329 842 395 842 l 317 842 l 317 471 l 347 471 q 434 480 393 471 q 502 506 474 490 q 552 542 530 522 q 587 583 574 563 q 607 624 600 603 l 607 277 q 579 330 597 304 q 530 380 560 355 q 452 421 500 406 q 347 436 405 436 l 317 436 l 317 182 q 321 136 317 159 q 338 90 326 114 q 375 52 350 66 q 435 37 399 37 l 465 37 q 653 115 563 37 q 804 340 743 193 l 737 0 l 40 0 q 78 84 65 34 q 90 178 90 134 l 90 701 q 77 795 90 745 q 35 879 63 846 m 224 943 q 385 1129 309 1034 l 454 1129 q 615 943 530 1034 l 612 939 q 419 1026 459 1010 q 227 939 328 988 l 224 943 z "},"Ë":{"ha":838,"x_min":35,"x_max":804,"o":"m 35 879 l 710 879 l 771 570 q 711 680 745 633 q 639 758 677 727 q 551 807 600 789 q 449 834 502 826 q 329 842 395 842 l 317 842 l 317 471 l 347 471 q 434 480 393 471 q 502 506 474 490 q 552 542 530 522 q 587 583 574 563 q 607 624 600 603 l 607 277 q 579 330 597 304 q 530 380 560 355 q 452 421 500 406 q 347 436 405 436 l 317 436 l 317 182 q 321 136 317 159 q 338 90 326 114 q 375 52 350 66 q 435 37 399 37 l 465 37 q 653 115 563 37 q 804 340 743 193 l 737 0 l 40 0 q 78 84 65 34 q 90 178 90 134 l 90 701 q 77 795 90 745 q 35 879 63 846 m 226 978 q 214 989 226 978 q 203 1039 203 1001 q 226 1100 203 1077 q 288 1124 250 1124 q 349 1100 326 1124 q 372 1039 372 1077 q 349 978 372 1001 q 288 954 326 954 q 226 978 250 954 m 431 978 q 419 989 431 978 q 407 1039 407 1001 q 431 1100 407 1077 q 492 1124 454 1124 q 553 1100 529 1124 q 576 1039 576 1077 q 553 978 576 1001 q 492 954 529 954 q 431 978 454 954 z "},"Ì":{"ha":436,"x_min":35,"x_max":401,"o":"m 35 1014 l 119 1156 q 357 949 173 1086 l 354 945 q 193 980 331 950 q 35 1014 55 1009 m 64 0 q 110 98 100 49 q 119 232 119 146 l 119 656 q 109 786 119 737 q 64 879 98 835 l 401 879 q 356 786 367 835 q 346 656 346 737 l 346 232 q 356 98 346 146 q 401 0 366 49 l 64 0 z "},"Í":{"ha":407,"x_min":35,"x_max":372,"o":"m 35 0 q 80 98 71 49 q 90 232 90 146 l 90 656 q 80 786 90 737 q 35 879 69 835 l 372 879 q 327 786 338 835 q 317 656 317 737 l 317 232 q 327 98 317 146 q 372 0 336 49 l 35 0 m 50 949 q 288 1156 234 1086 l 372 1014 l 53 945 l 50 949 z "},"Î":{"ha":460,"x_min":35,"x_max":427,"o":"m 35 943 q 196 1129 124 1038 l 265 1129 q 427 943 337 1038 l 424 939 q 231 1026 271 1010 q 37 939 135 987 l 35 943 m 62 0 q 108 98 98 49 q 118 232 118 146 l 118 656 q 107 786 118 737 q 62 879 97 835 l 400 879 q 355 786 366 835 q 345 656 345 737 l 345 232 q 354 98 345 146 q 400 0 364 49 l 62 0 z "},"Ï":{"ha":443,"x_min":35,"x_max":408,"o":"m 58 975 q 46 987 58 975 q 35 1036 35 998 q 58 1098 35 1074 q 119 1121 81 1121 q 181 1098 157 1121 q 204 1036 204 1074 q 181 975 204 998 q 119 951 157 951 q 58 975 81 951 m 52 0 q 97 98 87 49 q 107 232 107 146 l 107 656 q 97 786 107 737 q 52 879 86 835 l 389 879 q 344 786 354 835 q 334 656 334 738 l 334 232 q 343 97 334 146 q 389 0 353 49 l 52 0 m 262 975 q 251 987 262 975 q 239 1036 239 998 q 262 1098 239 1074 q 323 1121 286 1121 q 385 1098 361 1121 q 408 1036 408 1074 q 385 975 408 998 q 323 951 361 951 q 262 975 286 951 z "},"Ð":{"ha":928,"x_min":35,"x_max":893,"o":"m 35 447 l 35 468 l 139 468 l 139 701 q 83 879 139 811 l 478 879 q 695 821 600 879 q 842 665 790 764 q 893 446 893 566 q 862 270 893 352 q 775 128 831 188 q 640 34 720 68 q 467 0 560 0 l 83 0 q 139 178 139 70 l 139 447 l 35 447 m 366 182 q 371 132 366 156 q 387 86 376 108 q 418 51 397 64 q 465 37 438 37 l 467 37 q 536 57 507 37 q 583 106 566 77 q 609 176 599 136 q 622 251 619 217 q 625 321 625 284 q 621 407 625 359 q 606 516 616 456 q 576 632 595 576 q 531 736 557 688 q 468 812 506 783 q 383 840 429 840 l 366 840 l 366 468 l 465 468 l 465 447 l 366 447 l 366 182 z "},"Ñ":{"ha":903,"x_min":35,"x_max":868,"o":"m 35 0 q 76 82 61 32 q 90 178 90 132 l 90 701 q 76 797 90 747 q 35 879 61 847 l 258 879 l 778 151 l 778 701 q 763 797 778 747 q 722 879 749 847 l 868 879 q 827 797 842 847 q 812 701 812 747 l 812 66 l 623 -22 l 125 675 l 125 178 q 139 82 125 132 q 180 0 154 32 l 35 0 m 342 946 q 360 995 351 975 q 385 1038 370 1015 q 422 1073 400 1061 q 471 1084 444 1084 q 545 1064 498 1084 q 615 1044 591 1044 q 693 1088 652 1044 l 700 1083 q 660 1001 691 1036 q 583 966 628 966 q 508 986 555 966 q 441 1006 461 1006 q 402 994 422 1006 q 375 974 382 982 q 347 943 368 966 l 342 946 z "},"Ò":{"ha":936,"x_min":35,"x_max":901,"o":"m 35 437 q 53 575 35 508 q 108 702 71 642 q 197 805 145 761 q 321 876 249 850 q 476 901 393 901 q 659 864 576 901 q 793 764 741 827 q 873 622 845 701 q 901 454 901 542 q 872 283 901 365 q 790 136 844 201 q 652 32 736 71 q 464 -7 567 -7 q 281 30 363 -7 q 145 129 199 66 q 63 270 92 191 q 35 437 35 350 m 264 1014 l 349 1156 q 586 949 402 1086 l 583 945 l 264 1014 m 301 730 q 297 699 301 730 q 296 595 293 669 q 313 440 298 522 q 347 290 326 361 q 396 160 368 218 q 460 67 424 102 q 534 33 496 33 q 600 70 574 33 q 635 169 625 107 q 642 305 644 230 q 627 461 640 380 q 577 656 608 568 q 500 804 547 745 q 401 863 453 863 q 335 827 361 863 q 301 730 310 791 z "},"Ó":{"ha":936,"x_min":35,"x_max":901,"o":"m 35 437 q 53 575 35 508 q 108 702 71 642 q 197 805 145 761 q 321 876 249 850 q 476 901 393 901 q 659 864 576 901 q 793 764 741 827 q 873 622 845 701 q 901 454 901 542 q 872 283 901 365 q 790 136 844 201 q 652 32 736 71 q 464 -7 567 -7 q 281 30 363 -7 q 145 129 199 66 q 63 270 92 191 q 35 437 35 350 m 301 730 q 297 699 301 730 q 296 595 293 669 q 313 440 298 522 q 347 290 326 361 q 396 160 368 218 q 460 67 424 102 q 534 33 496 33 q 600 70 574 33 q 635 169 625 107 q 642 305 644 230 q 627 461 640 380 q 577 656 608 568 q 500 804 547 745 q 401 863 453 863 q 335 827 361 863 q 301 730 310 791 m 306 949 q 543 1156 490 1086 l 628 1014 l 309 945 l 306 949 z "},"Ô":{"ha":936,"x_min":35,"x_max":901,"o":"m 35 437 q 89 671 35 566 q 245 839 144 777 q 476 901 347 901 q 700 842 602 901 q 849 681 798 782 q 901 454 901 579 q 870 274 901 359 q 782 127 838 189 q 644 29 726 65 q 464 -7 562 -7 q 239 52 338 -7 q 88 211 141 110 q 35 437 35 312 m 272 943 q 433 1129 361 1038 l 503 1129 q 664 943 574 1038 l 661 939 q 468 1026 508 1010 q 275 939 376 988 l 272 943 m 294 635 q 302 524 294 592 q 329 369 310 455 q 374 208 348 282 q 443 84 400 134 q 534 33 485 33 q 593 60 569 33 q 626 131 616 87 q 640 208 636 174 q 643 275 643 241 q 635 386 643 319 q 609 537 627 453 q 564 693 590 621 q 494 813 537 764 q 401 863 452 863 q 353 845 374 863 q 321 803 332 827 q 304 744 311 778 q 296 685 298 709 q 294 635 294 661 z "},"Õ":{"ha":936,"x_min":35,"x_max":901,"o":"m 35 437 q 89 671 35 566 q 245 839 144 777 q 476 901 347 901 q 700 842 602 901 q 849 681 798 782 q 901 454 901 579 q 870 274 901 359 q 782 127 838 189 q 644 29 726 65 q 464 -7 562 -7 q 239 52 338 -7 q 88 211 141 110 q 35 437 35 312 m 288 946 q 306 995 297 975 q 331 1038 315 1015 q 368 1073 346 1061 q 416 1084 389 1084 q 491 1064 444 1084 q 561 1044 537 1044 q 639 1088 598 1044 l 646 1083 q 605 1001 637 1036 q 529 966 574 966 q 454 986 500 966 q 387 1006 407 1006 q 348 994 368 1006 q 321 974 328 982 q 293 943 313 966 l 288 946 m 294 635 q 302 524 294 592 q 329 369 310 455 q 374 208 348 282 q 443 84 400 134 q 534 33 485 33 q 593 60 569 33 q 626 131 616 87 q 640 208 636 174 q 643 275 643 241 q 635 386 643 319 q 609 537 627 453 q 564 693 590 621 q 494 813 537 764 q 401 863 452 863 q 353 845 374 863 q 321 803 332 827 q 304 744 311 778 q 296 685 298 709 q 294 635 294 661 z "},"Ö":{"ha":936,"x_min":35,"x_max":901,"o":"m 35 437 q 53 575 35 508 q 108 702 71 642 q 197 805 145 761 q 321 876 249 850 q 476 901 393 901 q 659 864 576 901 q 793 764 741 827 q 873 622 845 701 q 901 454 901 542 q 872 283 901 365 q 790 136 844 201 q 652 32 736 71 q 464 -7 567 -7 q 281 30 363 -7 q 145 129 199 66 q 63 270 92 191 q 35 437 35 350 m 306 975 q 294 987 306 975 q 282 1036 282 998 q 306 1098 282 1074 q 367 1121 330 1121 q 428 1098 404 1121 q 452 1036 452 1074 q 428 975 452 998 q 367 951 404 951 q 306 975 330 951 m 301 730 q 297 699 301 730 q 296 595 293 669 q 313 440 298 522 q 347 290 326 361 q 396 160 368 218 q 460 67 424 102 q 534 33 496 33 q 600 70 574 33 q 635 169 625 107 q 642 305 644 230 q 627 461 640 380 q 577 656 608 568 q 500 804 547 745 q 401 863 453 863 q 335 827 361 863 q 301 730 310 791 m 510 975 q 498 987 510 975 q 486 1036 486 998 q 510 1098 486 1074 q 571 1121 533 1121 q 632 1098 609 1121 q 656 1036 656 1074 q 632 975 656 998 q 571 951 609 951 q 510 975 533 951 z "},"×":{"ha":436,"x_min":35,"x_max":401,"o":"m 35 240 l 208 412 l 35 585 l 46 596 l 220 424 l 390 596 l 401 585 l 229 412 l 401 240 l 390 229 l 220 401 l 46 229 l 35 240 z "},"Ø":{"ha":936,"x_min":35,"x_max":901,"o":"m 35 437 q 53 575 35 508 q 108 702 71 642 q 197 805 145 761 q 321 876 249 850 q 476 901 393 901 q 661 863 580 901 l 704 949 l 725 949 l 677 856 q 843 691 785 800 q 901 454 901 583 q 872 283 901 365 q 790 136 844 201 q 652 32 736 71 q 464 -7 567 -7 q 267 36 352 -7 l 229 -37 l 208 -37 l 250 46 q 91 208 147 102 q 35 437 35 313 m 301 730 q 297 699 301 730 q 296 595 293 669 q 313 440 298 522 q 357 258 332 328 l 568 677 q 493 813 536 763 q 401 863 450 863 q 335 827 361 863 q 301 730 310 791 m 366 233 q 442 87 399 142 q 534 33 485 33 q 600 70 574 33 q 635 169 625 107 q 642 305 644 230 q 627 461 640 380 q 578 654 610 565 l 366 233 z "},"Ù":{"ha":901,"x_min":35,"x_max":867,"o":"m 35 879 l 372 879 q 330 795 344 846 q 317 701 317 745 l 317 395 q 318 331 317 358 q 324 267 319 303 q 337 203 329 230 q 362 148 346 176 q 399 102 378 119 q 454 73 421 84 q 529 61 488 61 q 631 80 587 61 q 701 130 675 99 q 745 205 728 160 q 768 294 762 250 q 775 393 774 339 q 777 447 777 412 l 777 701 q 762 798 777 749 q 721 879 748 847 l 867 879 q 825 798 839 846 q 811 701 811 749 l 811 437 q 810 386 811 403 q 796 255 808 313 q 758 145 784 196 q 692 59 732 94 q 593 6 652 25 q 456 -14 533 -14 q 287 19 359 -14 q 173 113 216 52 q 111 253 131 174 q 90 431 90 332 l 90 701 q 76 798 90 749 q 35 879 62 847 m 289 1014 l 374 1156 q 611 949 427 1086 l 608 945 l 289 1014 z "},"Ú":{"ha":901,"x_min":35,"x_max":867,"o":"m 35 879 l 372 879 q 330 795 344 846 q 317 701 317 745 l 317 395 q 318 331 317 358 q 324 267 319 303 q 337 203 329 230 q 362 148 346 176 q 399 102 378 119 q 454 73 421 84 q 529 61 488 61 q 631 80 587 61 q 701 130 675 99 q 745 205 728 160 q 768 294 762 250 q 775 393 774 339 q 777 447 777 412 l 777 701 q 762 798 777 749 q 721 879 748 847 l 867 879 q 825 798 839 846 q 811 701 811 749 l 811 437 q 810 386 811 403 q 796 255 808 313 q 758 145 784 196 q 692 59 732 94 q 593 6 652 25 q 456 -14 533 -14 q 287 19 359 -14 q 173 113 216 52 q 111 253 131 174 q 90 431 90 332 l 90 701 q 76 798 90 749 q 35 879 62 847 m 358 949 q 596 1156 544 1087 l 681 1014 l 361 945 l 358 949 z "},"Û":{"ha":901,"x_min":35,"x_max":867,"o":"m 35 879 l 372 879 q 330 795 344 846 q 317 701 317 745 l 317 395 q 318 331 317 358 q 324 267 319 303 q 337 203 329 230 q 362 148 346 176 q 399 102 378 119 q 454 73 421 84 q 529 61 488 61 q 614 74 576 61 q 677 106 652 86 q 721 157 703 126 q 750 220 740 189 q 767 293 761 252 q 775 369 773 335 q 777 447 777 404 l 777 701 q 762 798 777 749 q 721 879 748 847 l 867 879 q 825 798 839 846 q 811 701 811 749 l 811 437 q 803 294 811 357 q 770 172 794 231 q 708 73 747 112 q 605 10 669 34 q 456 -14 541 -14 q 287 19 359 -14 q 173 113 216 52 q 111 253 131 174 q 90 431 90 332 l 90 701 q 76 798 90 749 q 35 879 62 847 m 325 943 q 486 1129 414 1038 l 555 1129 q 717 943 627 1038 l 714 939 q 521 1026 561 1010 q 328 939 425 987 l 325 943 z "},"Ü":{"ha":901,"x_min":35,"x_max":867,"o":"m 35 879 l 372 879 q 330 795 344 846 q 317 701 317 745 l 317 395 q 318 331 317 358 q 324 267 319 303 q 337 203 329 230 q 362 148 346 176 q 399 102 378 119 q 454 73 421 84 q 529 61 488 61 q 614 74 576 61 q 677 106 652 86 q 721 157 703 126 q 750 220 740 189 q 767 293 761 252 q 775 369 773 335 q 777 447 777 404 l 777 701 q 762 798 777 749 q 721 879 748 847 l 867 879 q 825 798 839 846 q 811 701 811 749 l 811 437 q 803 294 811 357 q 770 172 794 231 q 708 73 747 112 q 605 10 669 34 q 456 -14 541 -14 q 287 19 359 -14 q 173 113 216 52 q 111 253 131 174 q 90 431 90 332 l 90 701 q 76 798 90 749 q 35 879 62 847 m 340 975 q 328 987 340 975 q 317 1036 317 998 q 340 1098 317 1074 q 401 1121 363 1121 q 463 1098 439 1121 q 486 1036 486 1074 q 463 975 486 998 q 401 951 439 951 q 340 975 363 951 m 545 975 q 533 987 545 975 q 521 1036 521 998 q 545 1098 521 1074 q 606 1121 568 1121 q 667 1098 643 1121 q 690 1036 690 1074 q 667 975 690 998 q 606 951 643 951 q 545 975 568 951 z "},"Ý":{"ha":952,"x_min":35,"x_max":918,"o":"m 35 879 l 519 879 q 489 610 413 758 l 579 435 l 653 559 q 699 649 684 611 q 719 726 715 686 q 708 803 723 766 q 659 879 693 840 l 918 879 q 737 636 838 813 l 593 386 l 593 178 q 606 83 593 134 q 648 0 620 33 l 311 0 q 353 83 340 33 q 367 178 367 134 l 367 355 l 243 587 q 137 760 185 694 q 35 879 89 826 m 396 949 q 633 1156 580 1086 l 718 1014 l 399 945 l 396 949 z "},"ß":{"ha":1005,"x_min":35,"x_max":971,"o":"m 35 602 l 35 615 l 121 625 l 121 631 q 200 874 121 798 q 452 950 280 950 q 510 948 481 950 q 575 941 538 946 q 642 925 612 936 q 699 897 672 913 q 741 854 726 881 q 755 794 755 828 q 743 739 755 764 q 710 699 730 714 q 669 668 691 684 q 627 640 646 652 q 595 610 608 628 q 582 571 582 592 q 603 515 582 542 q 659 466 625 488 q 735 421 694 444 q 818 374 777 399 q 894 323 859 350 q 950 260 928 296 q 971 182 971 223 q 952 103 971 138 q 903 47 932 68 q 832 13 873 26 q 754 -7 792 -1 q 676 -12 715 -12 q 584 -4 629 -12 q 494 22 539 4 q 421 77 449 41 q 393 164 393 114 q 413 230 393 205 q 475 254 433 254 q 524 235 507 254 q 555 178 541 216 q 564 151 558 170 q 573 123 570 133 q 584 97 576 113 q 597 71 591 80 q 615 50 604 62 q 639 32 627 38 q 669 21 652 26 q 708 17 687 17 q 775 36 747 17 q 803 93 803 55 q 783 145 803 120 q 731 190 763 170 q 661 230 699 210 q 584 274 623 251 q 513 324 545 298 q 461 387 481 351 q 441 467 441 424 q 454 528 441 499 q 485 582 467 557 q 520 632 503 606 q 551 696 538 658 q 564 779 564 734 q 446 924 564 924 q 408 920 425 924 q 378 906 391 916 q 355 888 366 897 q 338 862 345 878 q 326 834 331 846 q 317 801 320 821 q 312 768 314 781 q 310 732 311 755 q 309 699 309 710 q 309 667 309 688 q 309 660 309 662 l 309 178 q 323 81 309 130 q 364 0 337 32 l 65 0 q 106 82 92 32 q 121 178 121 132 l 121 602 l 35 602 z "},"à":{"ha":692,"x_min":35,"x_max":659,"o":"m 35 151 q 42 198 35 176 q 60 238 49 220 q 90 273 71 256 q 126 302 109 290 q 171 326 144 314 q 217 346 197 338 q 267 364 236 354 q 315 378 298 374 q 363 391 333 383 q 406 403 393 399 l 415 406 l 415 431 q 414 476 415 458 q 411 520 414 495 q 401 562 408 545 q 384 594 394 578 q 356 617 373 610 q 315 625 338 625 q 258 609 283 625 q 216 569 233 593 q 186 506 200 545 q 165 431 173 466 q 150 346 158 396 l 57 551 q 69 562 61 555 q 104 585 77 568 q 163 615 132 602 q 246 639 195 629 q 353 650 298 650 q 474 631 425 650 q 551 575 524 613 q 591 485 579 536 q 603 361 603 434 l 603 279 q 617 183 603 232 q 659 102 631 134 l 415 -21 l 415 111 q 211 -8 332 -8 q 86 36 137 -8 q 35 151 35 79 m 122 770 l 207 911 q 444 704 260 841 l 441 700 l 122 770 m 218 174 q 243 105 218 130 q 311 81 269 81 q 415 125 369 81 l 415 378 l 407 375 q 275 298 332 351 q 218 174 218 244 z "},"á":{"ha":692,"x_min":35,"x_max":659,"o":"m 35 151 q 42 198 35 176 q 60 238 49 220 q 90 273 71 256 q 126 302 109 290 q 171 326 144 314 q 217 346 197 338 q 267 364 236 354 q 315 378 298 374 q 363 391 333 383 q 406 403 393 399 l 415 406 l 415 431 q 414 476 415 458 q 411 520 414 495 q 401 562 408 545 q 384 594 394 578 q 356 617 373 610 q 315 625 338 625 q 258 609 283 625 q 216 569 233 593 q 186 506 200 545 q 165 431 173 466 q 150 346 158 396 l 57 551 q 69 562 61 555 q 104 585 77 568 q 163 615 132 602 q 246 639 195 629 q 353 650 298 650 q 474 631 425 650 q 551 575 524 613 q 591 485 579 536 q 603 361 603 434 l 603 279 q 617 183 603 232 q 659 102 631 134 l 415 -21 l 415 111 q 211 -8 332 -8 q 86 36 137 -8 q 35 151 35 79 m 150 704 q 387 911 334 841 l 472 770 l 153 700 l 150 704 m 218 174 q 243 105 218 130 q 311 81 269 81 q 415 125 369 81 l 415 378 l 407 375 q 275 298 332 351 q 218 174 218 244 z "},"â":{"ha":692,"x_min":35,"x_max":659,"o":"m 35 151 q 42 198 35 176 q 60 238 49 220 q 90 273 71 256 q 126 302 109 290 q 171 326 144 314 q 217 346 197 338 q 267 364 236 354 q 315 378 298 374 q 363 391 333 383 q 406 403 393 399 l 415 406 l 415 431 q 414 476 415 458 q 411 520 414 495 q 401 562 408 545 q 384 594 394 578 q 356 617 373 610 q 315 625 338 625 q 258 609 283 625 q 216 569 233 593 q 186 506 200 545 q 165 431 173 466 q 150 346 158 396 l 57 551 q 69 562 61 555 q 104 585 77 568 q 163 615 132 602 q 246 639 195 629 q 353 650 298 650 q 474 631 425 650 q 551 575 524 613 q 591 485 579 536 q 603 361 603 434 l 603 279 q 617 183 603 232 q 659 102 631 134 l 415 -21 l 415 111 q 211 -8 332 -8 q 86 36 137 -8 q 35 151 35 79 m 151 692 q 313 878 241 786 l 382 878 q 543 692 454 786 l 541 688 q 347 775 387 760 q 154 688 252 736 l 151 692 m 218 174 q 243 105 218 130 q 311 81 269 81 q 415 125 369 81 l 415 378 l 407 375 q 275 298 332 351 q 218 174 218 244 z "},"ã":{"ha":692,"x_min":35,"x_max":659,"o":"m 35 151 q 42 198 35 176 q 60 238 49 220 q 90 273 71 256 q 126 302 109 290 q 171 326 144 314 q 217 346 197 338 q 267 364 236 354 q 315 378 298 374 q 363 391 333 383 q 406 403 393 399 l 415 406 l 415 431 q 414 476 415 458 q 411 520 414 495 q 401 562 408 545 q 384 594 394 578 q 356 617 373 610 q 315 625 338 625 q 258 609 283 625 q 216 569 233 593 q 186 506 200 545 q 165 431 173 466 q 150 346 158 396 l 57 551 q 69 562 61 555 q 104 585 77 568 q 163 615 132 602 q 246 639 195 629 q 353 650 298 650 q 474 631 425 650 q 551 575 524 613 q 591 485 579 536 q 603 361 603 434 l 603 279 q 617 183 603 232 q 659 102 631 134 l 415 -21 l 415 111 q 211 -8 332 -8 q 86 36 137 -8 q 35 151 35 79 m 167 686 q 187 739 177 717 q 212 782 197 760 q 248 814 227 803 q 296 825 269 825 q 370 805 324 825 q 440 785 416 785 q 518 828 479 785 l 525 823 q 514 789 522 807 q 493 751 507 771 q 458 719 480 732 q 408 707 435 707 q 332 726 378 707 q 267 746 286 746 q 246 743 256 746 q 228 735 235 739 q 211 723 221 732 q 197 711 201 715 q 183 696 193 707 q 172 684 174 686 l 167 686 m 218 174 q 243 105 218 130 q 311 81 269 81 q 415 125 369 81 l 415 378 l 407 375 q 275 298 332 351 q 218 174 218 244 z "},"ä":{"ha":692,"x_min":35,"x_max":659,"o":"m 35 151 q 42 198 35 176 q 60 238 49 220 q 90 273 71 256 q 126 302 109 290 q 171 326 144 314 q 217 346 197 338 q 267 364 236 354 q 315 378 298 374 q 363 391 333 383 q 406 403 393 399 l 415 406 l 415 431 q 414 476 415 458 q 411 520 414 495 q 401 562 408 545 q 384 594 394 578 q 356 617 373 610 q 315 625 338 625 q 258 609 283 625 q 216 569 233 593 q 186 506 200 545 q 165 431 173 466 q 150 346 158 396 l 57 551 q 69 562 61 555 q 104 585 77 568 q 163 615 132 602 q 246 639 195 629 q 353 650 298 650 q 474 631 425 650 q 551 575 524 613 q 591 485 579 536 q 603 361 603 434 l 603 279 q 617 183 603 232 q 659 102 631 134 l 415 -21 l 415 111 q 211 -8 332 -8 q 86 36 137 -8 q 35 151 35 79 m 183 726 q 172 738 183 726 q 160 787 160 749 q 183 849 160 825 q 244 872 207 872 q 306 848 282 872 q 329 787 329 825 q 306 726 329 750 q 244 703 282 703 q 183 726 207 703 m 218 174 q 243 105 218 130 q 311 81 269 81 q 415 125 369 81 l 415 378 l 407 375 q 275 298 332 351 q 218 174 218 244 m 388 726 q 376 738 388 726 q 364 787 364 750 q 388 848 364 825 q 449 872 411 872 q 510 849 486 872 q 533 787 533 825 q 510 726 533 749 q 449 703 486 703 q 388 726 411 703 z "},"å":{"ha":692,"x_min":35,"x_max":659,"o":"m 35 151 q 42 198 35 176 q 60 238 49 220 q 90 273 71 256 q 126 302 109 290 q 171 326 144 314 q 217 346 197 338 q 267 364 236 354 q 315 378 298 374 q 363 391 333 383 q 406 403 393 399 l 415 406 l 415 431 q 414 476 415 458 q 411 520 414 495 q 401 562 408 545 q 384 594 394 578 q 356 617 373 610 q 315 625 338 625 q 258 609 283 625 q 216 569 233 593 q 186 506 200 545 q 165 431 173 466 q 150 346 158 396 l 57 551 q 69 562 61 555 q 104 585 77 568 q 163 615 132 602 q 246 639 195 629 q 353 650 298 650 q 474 631 425 650 q 551 575 524 613 q 591 485 579 536 q 603 361 603 434 l 603 279 q 617 183 603 232 q 659 102 631 134 l 415 -21 l 415 111 q 211 -8 332 -8 q 86 36 137 -8 q 35 151 35 79 m 218 174 q 243 105 218 130 q 311 81 269 81 q 415 125 369 81 l 415 378 l 407 375 q 275 298 332 351 q 218 174 218 244 m 261 790 q 286 848 261 825 q 346 872 311 872 q 407 847 381 872 q 432 786 432 822 q 408 727 432 751 q 349 703 383 703 q 287 728 313 703 q 261 790 261 754 m 319 789 q 328 769 319 777 q 347 761 336 761 q 372 787 372 761 q 366 806 372 799 q 347 814 359 814 q 328 807 336 814 q 319 789 319 800 z "},"æ":{"ha":1087,"x_min":35,"x_max":1053,"o":"m 35 151 q 50 218 35 186 q 86 271 64 249 q 144 314 109 294 q 210 346 179 334 q 283 371 240 359 q 352 390 326 384 q 415 403 378 395 q 415 430 415 407 q 415 463 416 454 q 414 494 415 471 q 410 528 413 517 q 402 557 407 538 q 391 585 398 576 q 373 606 383 595 q 348 621 363 616 q 315 625 334 625 q 263 613 287 625 q 223 577 239 600 q 195 529 207 553 q 175 470 183 504 q 161 412 166 435 q 152 359 157 389 q 150 346 151 350 l 57 551 q 189 625 107 601 q 353 650 271 650 q 546 582 488 650 q 764 650 637 650 q 979 564 906 650 q 1053 334 1053 478 l 1053 328 l 635 328 q 659 234 642 277 q 702 156 675 191 q 771 100 729 120 q 865 79 812 79 q 1046 182 966 79 q 926 41 1002 90 q 749 -8 850 -8 q 569 36 646 -8 q 453 172 492 81 q 352 42 412 92 q 212 -8 292 -8 q 86 36 138 -8 q 35 151 35 79 m 218 174 q 245 105 218 130 q 315 81 272 81 q 450 176 397 81 q 415 376 415 266 q 277 302 336 355 q 218 174 218 248 m 629 412 q 631 355 629 375 l 671 357 q 721 360 701 358 q 768 368 741 361 q 811 386 795 374 q 838 417 827 397 q 850 467 850 438 q 837 536 850 501 q 797 598 825 572 q 733 625 769 625 q 677 603 700 625 q 645 543 654 581 q 632 475 635 505 q 629 412 629 446 z "},"ç":{"ha":687,"x_min":35,"x_max":653,"o":"m 35 329 q 47 425 35 378 q 88 512 60 471 q 155 583 115 553 q 252 632 195 614 q 376 650 309 650 q 639 561 537 650 l 536 315 q 515 444 529 388 q 483 533 500 500 q 444 588 466 567 q 403 617 422 610 q 363 625 384 625 q 268 563 302 625 q 233 408 233 500 q 242 316 233 362 q 271 228 251 271 q 318 152 290 184 q 388 99 347 119 q 478 79 429 79 q 653 176 577 79 q 390 -7 570 -1 l 385 -14 q 364 -52 364 -37 q 378 -75 364 -64 q 407 -93 391 -86 q 437 -117 423 -100 q 450 -157 450 -134 q 423 -213 450 -193 q 355 -233 396 -233 q 279 -214 320 -233 l 282 -196 q 306 -200 292 -200 q 336 -189 324 -200 q 349 -155 349 -178 q 331 -109 349 -133 q 313 -68 313 -85 q 313 -59 313 -64 q 315 -52 314 -55 q 318 -44 316 -48 q 322 -38 321 -40 q 326 -32 323 -36 q 330 -27 330 -28 q 335 -22 331 -26 q 339 -17 338 -18 l 349 -5 q 213 29 274 -1 q 114 106 153 59 q 55 210 76 153 q 35 329 35 267 z "},"è":{"ha":692,"x_min":35,"x_max":659,"o":"m 35 332 q 62 468 35 407 q 135 569 89 530 q 242 629 182 608 q 370 650 302 650 q 582 567 505 650 q 659 328 659 484 l 240 328 q 263 236 248 278 q 306 158 279 194 q 375 100 332 121 q 471 79 417 79 q 562 101 519 79 q 652 182 606 123 q 537 39 606 85 q 370 -7 468 -7 q 191 40 268 -7 q 74 162 113 86 q 35 332 35 239 m 184 765 l 269 907 q 507 700 321 838 l 504 696 l 184 765 m 233 415 q 236 355 233 397 l 283 357 q 337 360 315 357 q 382 369 358 362 q 421 387 407 376 q 446 418 436 398 q 456 467 456 439 q 422 576 456 526 q 339 625 389 625 q 287 606 309 625 q 254 553 265 586 q 238 487 243 521 q 233 415 233 452 z "},"é":{"ha":692,"x_min":35,"x_max":659,"o":"m 35 332 q 62 468 35 407 q 135 569 89 530 q 242 629 182 608 q 370 650 302 650 q 582 567 505 650 q 659 328 659 484 l 240 328 q 263 236 248 278 q 306 158 279 194 q 375 100 332 121 q 471 79 417 79 q 562 101 519 79 q 652 182 606 123 q 537 39 606 85 q 370 -7 468 -7 q 191 40 268 -7 q 74 162 113 86 q 35 332 35 239 m 184 700 q 422 907 370 838 l 507 765 l 187 696 l 184 700 m 233 415 q 236 355 233 397 l 283 357 q 337 360 315 357 q 382 369 358 362 q 421 387 407 376 q 446 418 436 398 q 456 467 456 439 q 422 576 456 526 q 339 625 389 625 q 287 606 309 625 q 254 553 265 586 q 238 487 243 521 q 233 415 233 452 z "},"ê":{"ha":692,"x_min":35,"x_max":659,"o":"m 35 332 q 62 468 35 407 q 135 569 89 530 q 242 629 182 608 q 370 650 302 650 q 582 567 505 650 q 659 328 659 484 l 240 328 q 263 236 248 278 q 306 158 279 194 q 375 100 332 121 q 471 79 417 79 q 562 101 519 79 q 652 182 606 123 q 537 39 606 85 q 370 -7 468 -7 q 191 40 268 -7 q 74 162 113 86 q 35 332 35 239 m 151 692 q 313 878 241 786 l 382 878 q 543 692 454 786 l 541 688 q 347 775 387 760 q 154 688 252 736 l 151 692 m 233 415 q 236 355 233 397 l 283 357 q 337 360 315 357 q 382 369 358 362 q 421 387 407 376 q 446 418 436 398 q 456 467 456 439 q 422 576 456 526 q 339 625 389 625 q 287 606 309 625 q 254 553 265 586 q 238 487 243 521 q 233 415 233 452 z "},"ë":{"ha":692,"x_min":35,"x_max":659,"o":"m 35 332 q 62 468 35 407 q 135 569 89 530 q 242 629 182 608 q 370 650 302 650 q 582 567 505 650 q 659 328 659 484 l 240 328 q 263 236 248 278 q 306 158 279 194 q 375 100 332 121 q 471 79 417 79 q 562 101 519 79 q 652 182 606 123 q 537 39 606 85 q 370 -7 468 -7 q 191 40 268 -7 q 74 162 113 86 q 35 332 35 239 m 211 726 q 199 738 211 726 q 187 787 187 750 q 211 848 187 825 q 272 872 235 872 q 333 848 309 872 q 357 787 357 825 q 333 726 357 750 q 272 703 309 703 q 211 726 235 703 m 233 415 q 236 355 233 397 l 283 357 q 337 360 315 357 q 382 369 358 362 q 421 387 407 376 q 446 418 436 398 q 456 467 456 439 q 422 576 456 526 q 339 625 389 625 q 287 606 309 625 q 254 553 265 586 q 238 487 243 521 q 233 415 233 452 m 415 726 q 404 738 415 726 q 392 787 392 749 q 415 849 392 825 q 476 872 439 872 q 537 848 514 872 q 561 787 561 825 q 537 726 561 750 q 476 703 514 703 q 415 726 439 703 z "},"ì":{"ha":391,"x_min":35,"x_max":357,"o":"m 35 765 l 119 907 q 357 700 173 837 l 354 696 l 35 765 m 47 0 q 90 83 76 33 q 103 178 103 134 l 103 350 q 90 444 103 394 q 47 528 76 494 l 290 650 l 290 178 q 304 83 290 134 q 346 0 317 33 l 47 0 z "},"í":{"ha":391,"x_min":35,"x_max":357,"o":"m 35 700 q 272 907 218 837 l 357 765 l 37 696 l 35 700 m 47 0 q 90 83 76 33 q 103 178 103 134 l 103 350 q 90 444 103 394 q 47 528 76 494 l 290 650 l 290 178 q 304 83 290 134 q 346 0 317 33 l 47 0 z "},"î":{"ha":460,"x_min":35,"x_max":427,"o":"m 35 692 q 196 878 124 786 l 265 878 q 427 692 337 786 l 424 688 q 231 775 271 760 q 37 688 135 736 l 35 692 m 82 0 q 124 83 111 33 q 138 178 138 134 l 138 350 q 124 444 138 394 q 82 528 111 494 l 325 650 l 325 178 q 338 83 325 134 q 380 0 352 33 l 82 0 z "},"ï":{"ha":443,"x_min":35,"x_max":408,"o":"m 58 726 q 46 738 58 726 q 35 787 35 750 q 58 848 35 825 q 119 872 81 872 q 181 848 157 872 q 204 787 204 825 q 181 726 204 750 q 119 703 157 703 q 58 726 81 703 m 71 0 q 113 83 99 33 q 126 178 126 134 l 126 350 q 113 444 126 394 q 71 528 99 494 l 314 650 l 314 178 q 328 83 314 134 q 370 0 341 33 l 71 0 m 262 726 q 251 738 262 726 q 239 787 239 750 q 262 848 239 825 q 323 872 286 872 q 385 848 361 872 q 408 787 408 825 q 385 726 408 750 q 323 703 361 703 q 262 726 286 703 z "},"ð":{"ha":718,"x_min":35,"x_max":684,"o":"m 35 262 q 48 356 35 310 q 87 439 62 401 q 153 500 112 477 q 244 524 194 524 q 403 471 337 524 q 289 676 365 579 l 193 608 l 179 627 l 273 693 q 69 848 178 805 l 69 886 q 382 770 230 864 l 543 884 l 557 865 l 403 755 q 606 552 529 672 q 684 292 684 432 q 588 54 684 140 q 340 -32 493 -32 q 120 48 205 -32 q 35 262 35 128 m 271 236 q 273 192 271 216 q 281 135 275 168 q 296 77 287 103 q 323 34 306 52 q 361 16 340 16 q 400 44 383 16 q 426 112 418 72 q 438 186 434 153 q 441 243 441 220 q 410 450 441 349 q 374 464 394 464 q 322 438 344 464 q 290 373 300 412 q 275 299 279 333 q 271 236 271 265 z "},"ñ":{"ha":798,"x_min":35,"x_max":764,"o":"m 35 0 q 77 83 63 33 q 90 178 90 134 l 90 350 q 77 444 90 394 q 35 528 63 494 l 278 650 l 278 498 q 518 650 368 650 q 586 640 556 650 q 635 615 616 630 q 669 574 655 600 q 690 524 683 548 q 702 463 698 500 q 707 397 706 425 q 708 326 708 369 l 708 178 q 722 83 708 134 q 764 0 735 33 l 465 0 q 507 83 494 33 q 521 178 521 134 l 521 281 q 515 456 521 415 q 453 557 503 538 q 411 564 435 564 q 278 490 339 564 l 278 178 q 292 83 278 134 q 334 0 305 33 l 35 0 m 221 714 q 241 766 231 745 q 266 809 251 787 q 302 842 281 831 q 350 852 323 852 q 425 832 378 852 q 494 812 471 812 q 572 856 534 812 l 579 851 q 569 817 576 835 q 548 779 561 799 q 512 747 534 760 q 463 734 490 734 q 386 754 433 734 q 321 774 340 774 q 300 770 311 774 q 282 763 290 767 q 266 751 275 760 q 252 739 256 743 q 238 724 248 734 q 227 711 228 713 l 221 714 z "},"ò":{"ha":725,"x_min":35,"x_max":690,"o":"m 35 315 q 58 438 35 378 q 123 546 81 498 q 229 621 165 593 q 367 650 292 650 q 502 623 439 650 q 604 550 564 595 q 668 447 645 505 q 690 326 690 389 q 667 203 690 262 q 602 96 644 143 q 496 21 560 50 q 358 -7 433 -7 q 187 39 262 -7 q 73 158 112 85 q 35 315 35 231 m 201 765 l 286 907 q 524 700 340 837 l 521 696 l 201 765 m 238 526 q 235 504 238 526 q 233 428 231 482 q 244 315 234 374 q 280 174 257 239 q 338 66 304 109 q 408 22 372 22 q 469 68 447 22 q 492 183 491 115 q 481 332 492 252 q 445 472 469 408 q 386 580 421 537 q 314 623 351 623 q 265 596 284 623 q 238 526 245 570 z "},"ó":{"ha":725,"x_min":35,"x_max":690,"o":"m 35 315 q 58 438 35 378 q 123 546 81 498 q 229 621 165 593 q 367 650 292 650 q 502 623 439 650 q 604 550 564 595 q 668 447 645 505 q 690 326 690 389 q 667 203 690 262 q 602 96 644 143 q 496 21 560 50 q 358 -7 433 -7 q 187 39 262 -7 q 73 158 112 85 q 35 315 35 231 m 201 700 q 439 907 385 837 l 524 765 l 204 696 l 201 700 m 238 526 q 235 504 238 526 q 233 428 231 482 q 244 315 234 374 q 280 174 257 239 q 338 66 304 109 q 408 22 372 22 q 469 68 447 22 q 492 183 491 115 q 481 332 492 252 q 445 472 469 408 q 386 580 421 537 q 314 623 351 623 q 265 596 284 623 q 238 526 245 570 z "},"ô":{"ha":725,"x_min":35,"x_max":690,"o":"m 35 315 q 58 438 35 378 q 123 546 81 498 q 229 621 165 593 q 367 650 292 650 q 502 623 439 650 q 604 550 564 595 q 668 447 645 505 q 690 326 690 389 q 667 203 690 262 q 602 96 644 143 q 496 21 560 50 q 358 -7 433 -7 q 187 39 262 -7 q 73 158 112 85 q 35 315 35 231 m 167 692 q 328 878 252 782 l 397 878 q 558 692 473 782 l 555 688 q 363 775 399 761 q 170 688 267 736 l 167 692 m 238 526 q 235 504 238 526 q 233 428 231 482 q 244 315 234 374 q 280 174 257 239 q 338 66 304 109 q 408 22 372 22 q 469 68 447 22 q 492 183 491 115 q 481 332 492 252 q 445 472 469 408 q 386 580 421 537 q 314 623 351 623 q 265 596 284 623 q 238 526 245 570 z "},"õ":{"ha":725,"x_min":35,"x_max":690,"o":"m 35 315 q 58 438 35 378 q 123 546 81 498 q 229 621 165 593 q 367 650 292 650 q 502 623 439 650 q 604 550 564 595 q 668 447 645 505 q 690 326 690 389 q 667 203 690 262 q 602 96 644 143 q 496 21 560 50 q 358 -7 433 -7 q 187 39 262 -7 q 73 158 112 85 q 35 315 35 231 m 183 686 q 203 739 193 717 q 229 782 214 760 q 265 814 244 803 q 313 825 286 825 q 387 805 341 825 q 457 785 433 785 q 534 828 496 785 l 542 823 q 531 789 539 807 q 510 751 524 771 q 475 719 497 732 q 425 707 452 707 q 349 726 395 707 q 283 746 302 746 q 263 743 273 746 q 245 735 252 739 q 228 723 238 732 q 214 711 218 715 q 200 696 210 707 q 189 684 191 686 l 183 686 m 238 526 q 235 504 238 526 q 233 428 231 482 q 244 315 234 374 q 280 174 257 239 q 338 66 304 109 q 408 22 372 22 q 469 68 447 22 q 492 183 491 115 q 481 332 492 252 q 433 501 465 425 q 358 606 400 577 q 314 623 337 623 q 265 596 284 623 q 238 526 245 570 z "},"ö":{"ha":725,"x_min":35,"x_max":690,"o":"m 35 315 q 58 438 35 378 q 123 546 81 498 q 229 621 165 593 q 367 650 292 650 q 502 623 439 650 q 604 550 564 595 q 668 447 645 505 q 690 326 690 389 q 667 203 690 262 q 602 96 644 143 q 496 21 560 50 q 358 -7 433 -7 q 187 39 262 -7 q 73 158 112 85 q 35 315 35 231 m 201 726 q 190 738 201 726 q 178 787 178 750 q 201 848 178 825 q 262 872 225 872 q 323 848 300 872 q 347 787 347 825 q 323 726 347 750 q 262 703 300 703 q 201 726 225 703 m 238 526 q 235 504 238 526 q 233 428 231 482 q 244 315 234 374 q 280 174 257 239 q 338 66 304 109 q 408 22 372 22 q 469 68 447 22 q 492 183 491 115 q 481 332 492 252 q 445 472 469 408 q 386 580 421 537 q 314 623 351 623 q 265 596 284 623 q 238 526 245 570 m 405 726 q 394 738 405 726 q 382 787 382 750 q 405 848 382 825 q 467 872 429 872 q 528 848 505 872 q 551 787 551 825 q 528 726 551 750 q 467 703 505 703 q 405 726 429 703 z "},"ø":{"ha":725,"x_min":35,"x_max":690,"o":"m 35 315 q 58 438 35 378 q 123 546 81 498 q 229 621 165 593 q 367 650 292 650 q 504 623 445 650 l 530 675 l 553 675 l 522 614 q 646 494 602 572 q 690 326 690 416 q 667 203 690 262 q 602 96 644 143 q 496 21 560 50 q 358 -7 433 -7 q 224 20 284 -7 l 195 -37 l 172 -37 l 205 29 q 80 147 125 69 q 35 315 35 224 m 238 526 q 235 504 238 526 q 233 428 231 482 q 244 315 234 374 q 281 176 256 244 l 437 490 q 381 587 412 551 q 314 623 349 623 q 265 596 284 623 q 238 526 245 570 m 290 151 q 345 57 314 92 q 408 22 375 22 q 469 68 447 22 q 492 183 491 115 q 481 332 492 252 q 447 465 473 387 l 290 151 z "},"ù":{"ha":797,"x_min":35,"x_max":762,"o":"m 35 517 l 277 639 l 277 347 q 282 180 277 216 q 337 87 292 106 q 383 79 356 79 q 519 153 458 79 l 519 350 q 506 444 519 394 q 464 528 492 494 l 707 650 l 707 279 q 720 185 707 235 q 762 102 734 135 l 519 -21 l 519 143 q 279 -7 431 -7 q 194 9 229 -7 q 138 51 158 26 q 107 119 119 77 q 93 201 96 161 q 90 297 90 240 l 90 339 q 77 433 90 383 q 35 517 63 484 m 237 765 l 322 907 q 559 700 376 837 l 557 696 l 237 765 z "},"ú":{"ha":797,"x_min":35,"x_max":762,"o":"m 35 517 l 277 639 l 277 347 q 282 180 277 216 q 337 87 292 106 q 383 79 356 79 q 519 153 458 79 l 519 350 q 506 444 519 394 q 464 528 492 494 l 707 650 l 707 279 q 720 185 707 235 q 762 102 734 135 l 519 -21 l 519 143 q 279 -7 431 -7 q 194 9 229 -7 q 138 51 158 26 q 107 119 119 77 q 93 201 96 161 q 90 297 90 240 l 90 339 q 77 433 90 383 q 35 517 63 484 m 237 700 q 475 907 421 837 l 559 765 l 240 696 l 237 700 z "},"û":{"ha":797,"x_min":35,"x_max":762,"o":"m 35 517 l 277 639 l 277 347 q 282 180 277 216 q 337 87 292 106 q 383 79 356 79 q 519 153 458 79 l 519 350 q 506 444 519 394 q 464 528 492 494 l 707 650 l 707 279 q 720 185 707 235 q 762 102 734 135 l 519 -21 l 519 143 q 279 -7 431 -7 q 194 9 229 -7 q 138 51 158 26 q 107 119 119 77 q 93 201 96 161 q 90 297 90 240 l 90 339 q 77 433 90 383 q 35 517 63 484 m 203 692 q 364 878 292 786 l 433 878 q 595 692 505 786 l 591 688 q 399 775 435 761 q 205 688 303 736 l 203 692 z "},"ü":{"ha":797,"x_min":35,"x_max":762,"o":"m 35 517 l 277 639 l 277 347 q 282 180 277 216 q 337 87 292 106 q 383 79 356 79 q 519 153 458 79 l 519 350 q 506 444 519 394 q 464 528 492 494 l 707 650 l 707 279 q 720 185 707 235 q 762 102 734 135 l 519 -21 l 519 143 q 279 -7 431 -7 q 194 9 229 -7 q 138 51 158 26 q 107 119 119 77 q 93 201 96 161 q 90 297 90 240 l 90 339 q 77 433 90 383 q 35 517 63 484 m 237 726 q 225 738 237 726 q 214 787 214 750 q 237 848 214 825 q 298 872 260 872 q 360 848 336 872 q 383 787 383 825 q 360 726 383 750 q 298 703 336 703 q 237 726 260 703 m 441 726 q 430 738 441 726 q 418 787 418 750 q 441 848 418 825 q 503 872 465 872 q 564 848 540 872 q 587 787 587 825 q 564 726 587 750 q 503 703 540 703 q 441 726 465 703 z "},"ý":{"ha":836,"x_min":35,"x_max":802,"o":"m 35 625 l 378 625 q 341 554 351 593 q 339 470 331 515 q 360 388 348 425 q 396 298 373 351 l 490 83 l 610 328 q 616 625 703 521 l 802 625 q 778 598 789 614 q 752 556 766 582 q 729 511 739 530 q 699 450 719 491 q 667 385 679 410 l 408 -126 q 312 -269 359 -224 q 191 -314 264 -314 q 66 -292 135 -314 l 66 -28 q 116 -91 85 -58 q 193 -151 146 -123 q 283 -178 240 -178 q 383 -115 351 -178 l 385 -113 l 167 383 q 137 453 157 406 q 107 523 117 501 q 77 574 97 544 q 35 625 58 604 m 254 700 q 492 907 438 837 l 576 765 l 257 696 l 254 700 z "},"ÿ":{"ha":836,"x_min":35,"x_max":802,"o":"m 35 625 l 378 625 q 341 554 351 593 q 339 470 331 515 q 360 388 348 425 q 396 298 373 351 l 490 83 l 610 328 q 616 625 703 521 l 802 625 q 778 598 789 614 q 752 556 766 582 q 729 511 739 530 q 699 450 719 491 q 667 385 679 410 l 408 -126 q 312 -269 359 -224 q 191 -314 264 -314 q 66 -292 135 -314 l 66 -28 q 116 -91 85 -58 q 193 -151 146 -123 q 283 -178 240 -178 q 383 -115 351 -178 l 385 -113 l 167 383 q 137 453 157 406 q 107 523 117 501 q 77 574 97 544 q 35 625 58 604 m 254 726 q 242 738 254 726 q 231 787 231 750 q 254 848 231 825 q 315 872 278 872 q 376 848 353 872 q 400 787 400 825 q 376 726 400 750 q 315 703 353 703 q 254 726 278 703 m 458 726 q 446 738 458 726 q 435 787 435 750 q 458 848 435 825 q 519 872 481 872 q 581 848 557 872 q 604 787 604 825 q 581 726 604 750 q 519 703 557 703 q 458 726 481 703 z "},"Œ":{"ha":1379,"x_min":35,"x_max":1344,"o":"m 35 437 q 90 671 35 566 q 247 839 145 777 q 478 901 349 901 q 619 879 532 901 l 1250 879 l 1311 570 q 1235 703 1278 649 q 1133 786 1191 756 q 1011 829 1076 817 q 860 842 946 842 l 857 842 l 857 471 l 888 471 q 997 484 948 471 q 1088 533 1046 497 q 1147 624 1130 568 l 1147 277 q 1048 395 1121 355 q 888 436 975 436 l 857 436 l 857 182 q 886 78 857 119 q 975 37 915 37 l 983 37 q 1110 61 1053 37 q 1211 128 1167 84 q 1285 223 1254 172 q 1344 340 1317 274 l 1278 0 l 575 0 q 525 -3 574 0 q 467 -7 477 -7 q 241 52 340 -7 q 88 211 142 110 q 35 437 35 311 m 294 635 q 303 515 294 586 q 331 358 311 444 q 376 201 350 273 q 445 81 403 130 q 534 33 486 33 q 592 59 568 33 q 625 127 615 85 q 639 204 635 170 q 643 275 643 239 q 635 385 643 318 q 609 536 627 452 q 564 692 590 621 q 494 813 537 764 q 401 863 452 863 q 353 845 374 863 q 321 803 332 827 q 304 744 311 778 q 296 685 298 709 q 294 635 294 661 z "},"œ":{"ha":1143,"x_min":35,"x_max":1108,"o":"m 35 315 q 131 552 35 455 q 367 650 227 650 q 585 570 496 650 q 819 650 676 650 q 982 608 916 650 q 1078 494 1048 566 q 1108 328 1108 423 l 690 328 l 690 325 q 715 232 699 275 q 759 155 732 190 q 827 99 786 119 q 921 79 869 79 q 1020 106 977 79 q 1101 182 1063 132 q 819 -7 1013 -7 q 586 81 677 -7 q 358 -7 492 -7 q 127 86 220 -7 q 35 315 35 178 m 232 447 q 238 368 232 417 q 258 259 244 319 q 291 146 272 198 q 341 58 311 94 q 408 22 372 22 q 453 43 435 22 q 478 96 471 63 q 489 155 486 129 q 492 207 492 180 q 481 312 492 248 q 451 449 471 376 q 395 572 431 521 q 314 623 359 623 q 270 603 288 623 q 245 553 252 584 q 235 497 237 522 q 232 447 232 472 m 688 484 q 686 464 688 484 q 685 414 684 445 q 689 355 686 382 l 737 357 q 786 359 766 357 q 830 368 806 361 q 869 386 854 375 q 895 418 884 397 q 905 467 905 438 q 893 536 905 501 q 852 598 880 572 q 789 625 825 625 q 735 604 757 625 q 703 553 713 583 q 688 484 692 523 z "},"Ÿ":{"ha":952,"x_min":35,"x_max":918,"o":"m 35 879 l 519 879 q 489 610 413 758 l 579 435 l 653 559 q 699 649 684 611 q 719 726 715 686 q 708 803 723 766 q 659 879 693 840 l 918 879 q 737 636 838 813 l 593 386 l 593 178 q 606 83 593 134 q 648 0 620 33 l 311 0 q 353 83 340 33 q 367 178 367 134 l 367 355 l 243 587 q 137 760 185 694 q 35 879 89 826 m 396 975 q 384 987 396 975 q 372 1036 372 998 q 396 1098 372 1074 q 457 1121 419 1121 q 518 1098 495 1121 q 542 1036 542 1074 q 518 975 542 998 q 457 951 495 951 q 396 975 419 951 m 600 975 q 588 987 600 975 q 576 1036 576 998 q 600 1098 576 1074 q 661 1121 624 1121 q 722 1098 699 1121 q 746 1036 746 1074 q 722 975 746 998 q 661 951 699 951 q 600 975 624 951 z "},"ˆ":{"ha":460,"x_min":35,"x_max":427,"o":"m 35 692 q 196 878 124 786 l 265 878 q 427 692 337 786 l 424 688 q 231 775 271 760 q 37 688 135 736 l 35 692 z "},"˜":{"ha":427,"x_min":35,"x_max":393,"o":"m 35 686 q 55 739 45 717 q 80 782 65 760 q 117 814 96 803 q 164 825 138 825 q 239 805 193 825 q 309 785 285 785 q 386 828 347 785 l 393 823 q 383 789 391 807 q 362 751 375 771 q 326 719 349 732 q 277 707 304 707 q 200 726 247 707 q 135 746 154 746 q 114 743 125 746 q 97 736 104 739 q 80 723 90 732 q 66 711 69 714 q 52 696 62 707 q 40 684 41 684 l 35 686 z "}," ":{"ha":579,"x_min":0,"x_max":0,"o":""}," ":{"ha":1158,"x_min":0,"x_max":0,"o":""}," ":{"ha":579,"x_min":0,"x_max":0,"o":""}," ":{"ha":1158,"x_min":0,"x_max":0,"o":""}," ":{"ha":386,"x_min":0,"x_max":0,"o":""}," ":{"ha":290,"x_min":0,"x_max":0,"o":""}," ":{"ha":193,"x_min":0,"x_max":0,"o":""}," ":{"ha":193,"x_min":0,"x_max":0,"o":""}," ":{"ha":144,"x_min":0,"x_max":0,"o":""}," ":{"ha":231,"x_min":0,"x_max":0,"o":""}," ":{"ha":64,"x_min":0,"x_max":0,"o":""},"‐":{"ha":500,"x_min":35,"x_max":465,"o":"m 35 406 l 35 427 l 465 427 l 465 406 l 35 406 z "},"‑":{"ha":500,"x_min":35,"x_max":465,"o":"m 35 406 l 35 427 l 465 427 l 465 406 l 35 406 z "},"‒":{"ha":500,"x_min":35,"x_max":465,"o":"m 35 406 l 35 427 l 465 427 l 465 406 l 35 406 z "},"–":{"ha":687,"x_min":35,"x_max":653,"o":"m 35 404 l 35 446 l 653 446 l 653 404 l 35 404 z "},"—":{"ha":1061,"x_min":35,"x_max":1026,"o":"m 35 404 l 35 446 l 1026 446 l 1026 404 l 35 404 z "},"‘":{"ha":243,"x_min":35,"x_max":208,"o":"m 35 760 q 73 875 35 822 q 180 947 111 928 l 189 936 q 136 898 158 920 q 114 847 114 876 q 124 817 114 829 q 148 798 134 805 q 175 783 161 790 q 198 762 189 775 q 208 730 208 749 q 184 680 208 699 q 123 660 161 660 q 58 686 82 660 q 35 760 35 711 z "},"’":{"ha":243,"x_min":35,"x_max":208,"o":"m 35 876 q 58 927 35 907 q 119 947 82 947 q 184 921 161 947 q 208 847 208 895 q 170 732 208 785 q 62 660 132 680 l 54 671 q 129 760 129 707 q 119 789 129 777 q 95 809 109 802 q 68 824 81 817 q 44 844 54 831 q 35 876 35 857 z "},"‚":{"ha":243,"x_min":35,"x_max":208,"o":"m 35 71 q 58 122 35 102 q 119 142 82 142 q 184 116 161 142 q 208 41 208 90 q 170 -73 208 -20 q 62 -146 132 -126 l 54 -135 q 129 -46 129 -98 q 119 -16 129 -28 q 95 3 109 -4 q 68 18 81 11 q 44 39 54 26 q 35 71 35 52 z "},"“":{"ha":437,"x_min":35,"x_max":403,"o":"m 35 760 q 73 875 35 822 q 180 947 111 928 l 189 936 q 136 898 158 920 q 114 847 114 876 q 124 817 114 829 q 148 798 134 805 q 175 783 161 790 q 198 762 189 775 q 208 730 208 749 q 184 680 208 699 q 123 660 161 660 q 58 686 82 660 q 35 760 35 711 m 229 760 q 268 875 229 822 q 375 947 306 928 l 383 936 q 309 847 309 899 q 318 817 309 829 q 342 798 328 805 q 369 783 355 790 q 393 762 383 775 q 403 730 403 749 q 379 680 403 699 q 318 660 355 660 q 253 686 277 660 q 229 760 229 711 z "},"”":{"ha":437,"x_min":35,"x_max":403,"o":"m 35 876 q 58 927 35 907 q 119 947 82 947 q 184 921 161 947 q 208 847 208 895 q 170 732 208 785 q 62 660 132 680 l 54 671 q 129 760 129 707 q 119 789 129 777 q 95 809 109 802 q 68 824 81 817 q 44 844 54 831 q 35 876 35 857 m 229 876 q 253 927 229 907 q 314 947 277 947 q 379 921 355 947 q 403 847 403 895 q 365 732 403 785 q 257 660 327 680 l 249 671 q 323 760 323 707 q 314 789 323 777 q 290 809 304 802 q 263 824 277 817 q 239 844 249 831 q 229 876 229 857 z "},"„":{"ha":437,"x_min":35,"x_max":403,"o":"m 35 71 q 58 122 35 102 q 119 142 82 142 q 184 116 161 142 q 208 41 208 90 q 170 -73 208 -20 q 62 -146 132 -126 l 54 -135 q 129 -46 129 -98 q 119 -16 129 -28 q 95 3 109 -4 q 68 18 81 11 q 44 39 54 26 q 35 71 35 52 m 229 71 q 253 122 229 102 q 314 142 277 142 q 379 116 355 142 q 403 41 403 90 q 365 -73 403 -20 q 257 -146 327 -126 l 249 -135 q 323 -46 323 -98 q 314 -16 323 -28 q 290 3 304 -4 q 263 18 277 11 q 239 39 249 26 q 229 71 229 52 z "},"•":{"ha":195,"x_min":35,"x_max":161,"o":"m 35 406 q 52 451 35 433 q 98 468 69 468 q 144 451 126 468 q 161 406 161 433 q 144 359 161 377 q 98 342 126 342 q 52 359 69 342 q 35 406 35 376 z "},"…":{"ha":825,"x_min":35,"x_max":790,"o":"m 35 100 q 64 177 35 148 q 142 207 94 207 q 219 177 190 207 q 249 100 249 148 q 219 23 249 52 q 142 -7 190 -7 q 64 23 94 -7 q 35 100 35 52 m 335 22 q 321 37 335 22 q 306 100 306 52 q 335 177 306 148 q 412 207 365 207 q 490 177 460 207 q 519 100 519 148 q 490 23 519 52 q 412 -7 460 -7 q 335 22 365 -7 m 576 100 q 606 177 576 148 q 684 207 636 207 q 761 177 731 207 q 790 100 790 148 q 761 22 790 52 q 684 -7 731 -7 q 606 23 635 -7 q 576 100 576 52 z "}," ":{"ha":231,"x_min":0,"x_max":0,"o":""}," ":{"ha":290,"x_min":0,"x_max":0,"o":""},"€":{"ha":915,"x_min":35,"x_max":880,"o":"m 35 522 l 56 543 l 160 543 q 281 807 180 715 q 541 900 382 900 q 852 800 707 900 l 799 653 q 526 863 659 863 q 383 543 362 863 l 642 543 l 621 522 l 385 522 q 387 505 385 517 q 389 488 388 493 q 411 357 397 417 l 648 357 l 628 336 l 416 336 q 661 113 480 113 q 880 245 790 113 q 744 54 827 115 q 545 -7 661 -7 q 295 87 392 -7 q 168 336 197 182 l 41 336 l 62 357 l 164 357 q 155 465 155 413 q 158 522 155 486 l 35 522 z "},"™":{"ha":994,"x_min":35,"x_max":960,"o":"m 35 746 l 61 879 l 387 879 l 414 746 q 347 830 385 798 q 273 863 309 863 l 272 863 l 272 579 q 297 503 272 531 l 151 503 q 176 579 176 531 l 176 863 l 175 863 q 102 830 140 863 q 35 746 64 798 m 453 504 q 476 581 476 530 l 476 803 q 453 879 476 852 l 562 879 l 728 554 l 852 879 l 960 879 q 936 803 936 852 l 936 581 q 960 504 936 531 l 815 504 q 839 581 839 531 l 839 804 l 737 538 l 647 494 l 492 802 l 492 581 q 515 504 492 531 l 453 504 z "},"◼":{"ha":625,"x_min":0,"x_max":625,"o":"m 0 0 l 0 625 l 625 625 l 625 0 l 0 0 z "},"ﬁ":{"ha":806,"x_min":35,"x_max":772,"o":"m 35 602 l 35 615 l 121 625 l 121 660 q 193 881 121 813 q 408 949 266 949 q 473 946 440 949 q 547 934 505 943 q 620 909 589 924 q 673 864 651 893 q 694 798 694 836 q 670 733 694 762 q 591 704 646 704 q 514 729 541 704 q 469 798 487 753 q 456 832 465 807 q 441 869 446 858 q 425 895 435 880 q 400 917 414 911 q 367 924 386 924 q 320 878 332 924 q 309 722 309 832 l 309 625 l 435 625 l 435 602 l 309 602 l 309 178 q 322 83 309 134 q 364 0 336 33 l 65 0 q 107 83 94 33 q 121 178 121 134 l 121 602 l 35 602 m 473 0 q 515 83 502 33 q 529 178 529 134 l 529 350 q 515 444 529 394 q 473 528 502 494 l 717 650 l 717 178 q 730 83 717 134 q 772 0 744 33 l 473 0 z "},"ﬂ":{"ha":806,"x_min":35,"x_max":772,"o":"m 35 602 l 35 615 l 121 625 l 121 660 q 190 880 121 812 q 387 949 259 949 q 582 879 535 949 l 717 947 l 717 178 q 730 83 717 134 q 772 0 744 33 l 473 0 q 515 83 502 33 q 529 178 529 134 l 529 724 q 504 721 519 721 q 469 730 484 721 q 445 757 454 739 q 430 790 435 775 q 419 828 425 805 q 417 849 418 833 q 413 875 415 865 q 406 898 410 885 q 391 917 401 911 q 367 924 381 924 q 320 878 332 924 q 309 722 309 832 l 309 625 l 435 625 l 435 602 l 309 602 l 309 178 q 322 83 309 134 q 364 0 336 33 l 65 0 q 107 83 94 33 q 121 178 121 134 l 121 602 l 35 602 z "},"ﬃ":{"ha":1284,"x_min":35,"x_max":1250,"o":"m 35 602 l 35 615 l 121 625 l 121 660 q 190 880 121 812 q 387 949 259 949 q 458 943 425 949 q 521 923 490 937 q 569 883 551 909 q 587 818 587 856 q 565 749 587 775 q 498 722 543 722 q 414 796 430 722 q 409 832 410 811 q 406 868 407 854 q 401 896 405 882 q 390 917 398 909 q 367 924 381 924 q 320 878 332 924 q 309 722 309 832 l 309 625 l 599 625 l 599 660 q 671 881 599 813 q 886 949 744 949 q 951 946 918 949 q 1025 934 983 943 q 1098 909 1067 924 q 1151 864 1129 893 q 1173 798 1173 836 q 1148 733 1173 762 q 1069 704 1124 704 q 984 733 1015 704 q 945 806 954 763 q 907 886 935 849 q 844 924 879 924 q 798 878 809 924 q 786 722 786 832 l 786 625 l 913 625 l 913 602 l 786 602 l 786 178 q 800 83 786 134 q 842 0 813 33 l 543 0 q 585 84 572 34 q 599 180 599 134 l 599 602 l 309 602 l 309 178 q 322 83 309 134 q 364 0 336 33 l 65 0 q 107 83 94 33 q 121 178 121 134 l 121 602 l 35 602 m 951 0 q 994 83 980 33 q 1007 178 1007 134 l 1007 350 q 994 444 1007 394 q 951 528 980 494 l 1194 650 l 1194 178 q 1208 83 1194 134 q 1250 0 1221 33 l 951 0 z "},"ﬄ":{"ha":1284,"x_min":35,"x_max":1250,"o":"m 35 602 l 35 615 l 121 625 l 121 660 q 190 880 121 812 q 387 949 259 949 q 458 943 425 949 q 521 923 490 937 q 569 883 551 909 q 587 818 587 856 q 565 749 587 775 q 498 722 543 722 q 414 796 430 722 q 409 832 410 811 q 406 868 407 854 q 401 896 405 882 q 390 917 398 909 q 367 924 381 924 q 320 878 332 924 q 309 722 309 832 l 309 625 l 599 625 l 599 660 q 668 880 599 812 q 865 949 737 949 q 972 934 925 949 q 1060 879 1019 920 l 1194 947 l 1194 178 q 1208 83 1194 134 q 1250 0 1221 33 l 951 0 q 994 83 980 33 q 1007 175 1007 133 l 1007 647 q 994 722 1007 689 q 903 806 922 722 q 898 837 901 816 q 892 870 895 858 q 884 896 889 882 q 868 917 878 910 q 844 924 859 924 q 798 878 809 924 q 786 722 786 832 l 786 625 l 913 625 l 913 602 l 786 602 l 786 178 q 800 83 786 134 q 842 0 813 33 l 543 0 q 585 83 572 33 q 599 178 599 134 l 599 602 l 309 602 l 309 174 q 322 83 309 132 q 364 0 336 33 l 65 0 q 107 83 94 33 q 121 178 121 134 l 121 602 l 35 602 z "}}}
